<?xml version="1.0" encoding="utf-8" standalone="no"?>
<!DOCTYPE svg PUBLIC "-//W3C//DTD SVG 1.1//EN"
  "http://www.w3.org/Graphics/SVG/1.1/DTD/svg11.dtd">
<svg xmlns:xlink="http://www.w3.org/1999/xlink" width="443.576406pt" height="481.846172pt" viewBox="0 0 443.576406 481.846172" xmlns="http://www.w3.org/2000/svg" version="1.1">
 <metadata>
  <rdf:RDF xmlns:dc="http://purl.org/dc/elements/1.1/" xmlns:cc="http://creativecommons.org/ns#" xmlns:rdf="http://www.w3.org/1999/02/22-rdf-syntax-ns#">
   <cc:Work>
    <dc:type rdf:resource="http://purl.org/dc/dcmitype/StillImage"/>
    <dc:date>2026-07-31T16:08:05.794728</dc:date>
    <dc:format>image/svg+xml</dc:format>
    <dc:creator>
     <cc:Agent>
      <dc:title>Matplotlib v3.11.1, https://matplotlib.org/</dc:title>
     </cc:Agent>
    </dc:creator>
   </cc:Work>
  </rdf:RDF>
 </metadata>
 <defs>
  <style type="text/css">*{stroke-linejoin: round; stroke-linecap: butt}</style>
 </defs>
 <g id="figure_1">
  <g id="patch_1">
   <path d="M 0 481.846172 
L 443.576406 481.846172 
L 443.576406 0 
L 0 0 
z
" style="fill: #ffffff"/>
  </g>
  <g id="axes_1">
   <g id="patch_2">
    <path d="M 418.253984 262.383027 
C 418.253984 236.901928 413.234763 211.6686 403.483569 188.127134 
C 393.732374 164.585668 379.438842 143.193886 361.420984 125.176028 
C 343.403126 107.158169 322.011344 92.864637 298.469878 83.113443 
C 274.928411 73.362248 249.695084 68.343027 224.213984 68.343027 
C 198.732885 68.343027 173.499557 73.362248 149.958091 83.113443 
C 126.416625 92.864637 105.024843 107.158169 87.006985 125.176028 
C 68.989126 143.193886 54.695594 164.585668 44.9444 188.127134 
C 35.193205 211.6686 30.173984 236.901928 30.173984 262.383027 
C 30.173984 287.864127 35.193205 313.097454 44.9444 336.638921 
C 54.695594 360.180387 68.989126 381.572169 87.006985 399.590027 
C 105.024843 417.607885 126.416625 431.901417 149.958091 441.652612 
C 173.499557 451.403806 198.732885 456.423027 224.213984 456.423027 
C 249.695084 456.423027 274.928411 451.403806 298.469878 441.652612 
C 322.011344 431.901417 343.403126 417.607885 361.420984 399.590027 
C 379.438842 381.572169 393.732374 360.180387 403.483569 336.638921 
C 413.234763 313.097454 418.253984 287.864127 418.253984 262.383027 
M 224.213984 262.383027 
C 224.213984 262.383027 224.213984 262.383027 224.213984 262.383027 
C 224.213984 262.383027 224.213984 262.383027 224.213984 262.383027 
C 224.213984 262.383027 224.213984 262.383027 224.213984 262.383027 
C 224.213984 262.383027 224.213984 262.383027 224.213984 262.383027 
C 224.213984 262.383027 224.213984 262.383027 224.213984 262.383027 
C 224.213984 262.383027 224.213984 262.383027 224.213984 262.383027 
C 224.213984 262.383027 224.213984 262.383027 224.213984 262.383027 
C 224.213984 262.383027 224.213984 262.383027 224.213984 262.383027 
C 224.213984 262.383027 224.213984 262.383027 224.213984 262.383027 
C 224.213984 262.383027 224.213984 262.383027 224.213984 262.383027 
C 224.213984 262.383027 224.213984 262.383027 224.213984 262.383027 
C 224.213984 262.383027 224.213984 262.383027 224.213984 262.383027 
C 224.213984 262.383027 224.213984 262.383027 224.213984 262.383027 
C 224.213984 262.383027 224.213984 262.383027 224.213984 262.383027 
C 224.213984 262.383027 224.213984 262.383027 224.213984 262.383027 
C 224.213984 262.383027 224.213984 262.383027 224.213984 262.383027 
z
" style="fill: #fbf7f4"/>
   </g>
   <g id="matplotlib.axis_1">
    <g id="xtick_1">
     <g id="line2d_1">
      <path d="M 224.213984 262.383027 
L 418.253984 262.383027 
" clip-path="url(#p1848dde3d5)" style="fill: none; stroke-dasharray: 1.85,0.8; stroke-dashoffset: 0; stroke: #e8e0d8; stroke-opacity: 0.8; stroke-width: 0.5"/>
     </g>
     <g id="text_1">
      <!-- 0° -->
      <g style="fill: #6b5b7b" transform="translate(428.131562 264.712129) scale(0.09 -0.09)">
       <defs>
        <path id="SegoeUISymbol-13" d="M 3188 2259 
Q 3188 1697 3086 1262 
Q 2984 828 2792 529 
Q 2600 231 2320 76 
Q 2041 -78 1684 -78 
Q 1347 -78 1083 70 
Q 819 219 637 503 
Q 456 788 362 1202 
Q 269 1616 269 2150 
Q 269 2738 367 3188 
Q 466 3638 656 3942 
Q 847 4247 1130 4401 
Q 1413 4556 1778 4556 
Q 3188 4556 3188 2259 
z
M 2663 2209 
Q 2663 4122 1753 4122 
Q 794 4122 794 2175 
Q 794 359 1734 359 
Q 2663 359 2663 2209 
z
" transform="scale(0.015625)"/>
        <path id="SegoeUISymbol-83" d="M 1203 2803 
Q 844 2803 591 3058 
Q 338 3313 338 3675 
Q 338 4034 588 4282 
Q 838 4531 1197 4531 
Q 1559 4531 1814 4281 
Q 2069 4031 2069 3675 
Q 2069 3313 1816 3058 
Q 1563 2803 1203 2803 
z
M 1203 4166 
Q 1000 4166 856 4022 
Q 713 3878 713 3675 
Q 713 3466 853 3317 
Q 994 3169 1197 3169 
Q 1400 3169 1547 3319 
Q 1694 3469 1694 3675 
Q 1694 3881 1550 4023 
Q 1406 4166 1203 4166 
z
" transform="scale(0.015625)"/>
       </defs>
       <use xlink:href="#SegoeUISymbol-13"/>
       <use xlink:href="#SegoeUISymbol-83" transform="translate(53.90625 0)"/>
      </g>
     </g>
    </g>
    <g id="xtick_2">
     <g id="line2d_2">
      <path d="M 224.213984 262.383027 
L 392.257554 165.363027 
" clip-path="url(#p1848dde3d5)" style="fill: none; stroke-dasharray: 1.85,0.8; stroke-dashoffset: 0; stroke: #e8e0d8; stroke-opacity: 0.8; stroke-width: 0.5"/>
     </g>
     <g id="text_2">
      <!-- 30° -->
      <g style="fill: #6b5b7b" transform="translate(397.833706 160.692129) scale(0.09 -0.09)">
       <defs>
        <path id="SegoeUISymbol-16" d="M 2978 1269 
Q 2978 966 2864 717 
Q 2750 469 2542 292 
Q 2334 116 2043 19 
Q 1753 -78 1403 -78 
Q 763 -78 384 166 
L 384 716 
Q 838 359 1422 359 
Q 1656 359 1845 418 
Q 2034 478 2170 590 
Q 2306 703 2379 862 
Q 2453 1022 2453 1222 
Q 2453 2100 1203 2100 
L 831 2100 
L 831 2534 
L 1184 2534 
Q 2291 2534 2291 3359 
Q 2291 4122 1447 4122 
Q 972 4122 556 3803 
L 556 4300 
Q 984 4556 1575 4556 
Q 1856 4556 2084 4478 
Q 2313 4400 2475 4259 
Q 2638 4119 2727 3922 
Q 2816 3725 2816 3488 
Q 2816 2603 1922 2350 
L 1922 2338 
Q 2150 2313 2344 2227 
Q 2538 2141 2678 2003 
Q 2819 1866 2898 1680 
Q 2978 1494 2978 1269 
z
" transform="scale(0.015625)"/>
       </defs>
       <use xlink:href="#SegoeUISymbol-16"/>
       <use xlink:href="#SegoeUISymbol-13" transform="translate(53.90625 0)"/>
       <use xlink:href="#SegoeUISymbol-83" transform="translate(107.8125 0)"/>
      </g>
     </g>
    </g>
    <g id="xtick_3">
     <g id="line2d_3">
      <path d="M 224.213984 262.383027 
L 321.233984 94.339458 
" clip-path="url(#p1848dde3d5)" style="fill: none; stroke-dasharray: 1.85,0.8; stroke-dashoffset: 0; stroke: #e8e0d8; stroke-opacity: 0.8; stroke-width: 0.5"/>
     </g>
     <g id="text_3">
      <!-- 60° -->
      <g style="fill: #6b5b7b" transform="translate(321.685781 84.544204) scale(0.09 -0.09)">
       <defs>
        <path id="SegoeUISymbol-19" d="M 3194 1422 
Q 3194 1094 3087 819 
Q 2981 544 2793 344 
Q 2606 144 2347 33 
Q 2088 -78 1784 -78 
Q 1447 -78 1180 62 
Q 913 203 727 467 
Q 541 731 444 1112 
Q 347 1494 347 1972 
Q 347 2556 476 3032 
Q 606 3509 845 3848 
Q 1084 4188 1421 4372 
Q 1759 4556 2175 4556 
Q 2638 4556 2919 4428 
L 2919 3944 
Q 2572 4122 2188 4122 
Q 1888 4122 1647 3987 
Q 1406 3853 1234 3608 
Q 1063 3363 970 3016 
Q 878 2669 878 2244 
L 891 2244 
Q 1200 2803 1913 2803 
Q 2206 2803 2442 2703 
Q 2678 2603 2845 2420 
Q 3013 2238 3103 1984 
Q 3194 1731 3194 1422 
z
M 2669 1356 
Q 2669 1591 2609 1778 
Q 2550 1966 2439 2097 
Q 2328 2228 2165 2298 
Q 2003 2369 1797 2369 
Q 1606 2369 1443 2297 
Q 1281 2225 1162 2101 
Q 1044 1978 976 1814 
Q 909 1650 909 1466 
Q 909 1234 975 1032 
Q 1041 831 1159 681 
Q 1278 531 1442 445 
Q 1606 359 1806 359 
Q 2000 359 2159 432 
Q 2319 506 2431 637 
Q 2544 769 2606 951 
Q 2669 1134 2669 1356 
z
" transform="scale(0.015625)"/>
       </defs>
       <use xlink:href="#SegoeUISymbol-19"/>
       <use xlink:href="#SegoeUISymbol-13" transform="translate(53.90625 0)"/>
       <use xlink:href="#SegoeUISymbol-83" transform="translate(107.8125 0)"/>
      </g>
     </g>
    </g>
    <g id="xtick_4">
     <g id="line2d_4">
      <path d="M 224.213984 262.383027 
L 224.213984 68.343027 
" clip-path="url(#p1848dde3d5)" style="fill: none; stroke-dasharray: 1.85,0.8; stroke-dashoffset: 0; stroke: #e8e0d8; stroke-opacity: 0.8; stroke-width: 0.5"/>
     </g>
     <g id="text_4">
      <!-- 90° -->
      <g style="fill: #6b5b7b" transform="translate(217.665781 56.672129) scale(0.09 -0.09)">
       <defs>
        <path id="SegoeUISymbol-1c" d="M 3138 2509 
Q 3138 1894 3016 1414 
Q 2894 934 2659 601 
Q 2425 269 2087 95 
Q 1750 -78 1319 -78 
Q 875 -78 538 78 
L 538 569 
Q 909 359 1331 359 
Q 1634 359 1873 484 
Q 2113 609 2278 848 
Q 2444 1088 2531 1438 
Q 2619 1788 2619 2241 
L 2606 2241 
Q 2319 1663 1606 1663 
Q 1319 1663 1078 1764 
Q 838 1866 663 2052 
Q 488 2238 391 2494 
Q 294 2750 294 3059 
Q 294 3391 401 3666 
Q 509 3941 701 4139 
Q 894 4338 1158 4447 
Q 1422 4556 1734 4556 
Q 2072 4556 2333 4420 
Q 2594 4284 2772 4023 
Q 2950 3763 3044 3381 
Q 3138 3000 3138 2509 
z
M 2584 2969 
Q 2584 3228 2517 3440 
Q 2450 3653 2331 3804 
Q 2213 3956 2048 4039 
Q 1884 4122 1691 4122 
Q 1506 4122 1347 4048 
Q 1188 3975 1070 3842 
Q 953 3709 886 3526 
Q 819 3344 819 3128 
Q 819 2891 883 2703 
Q 947 2516 1065 2386 
Q 1184 2256 1351 2187 
Q 1519 2119 1722 2119 
Q 1900 2119 2058 2186 
Q 2216 2253 2333 2367 
Q 2450 2481 2517 2636 
Q 2584 2791 2584 2969 
z
" transform="scale(0.015625)"/>
       </defs>
       <use xlink:href="#SegoeUISymbol-1c"/>
       <use xlink:href="#SegoeUISymbol-13" transform="translate(53.90625 0)"/>
       <use xlink:href="#SegoeUISymbol-83" transform="translate(107.8125 0)"/>
      </g>
     </g>
    </g>
    <g id="xtick_5">
     <g id="line2d_5">
      <path d="M 224.213984 262.383027 
L 127.193984 94.339458 
" clip-path="url(#p1848dde3d5)" style="fill: none; stroke-dasharray: 1.85,0.8; stroke-dashoffset: 0; stroke: #e8e0d8; stroke-opacity: 0.8; stroke-width: 0.5"/>
     </g>
     <g id="text_5">
      <!-- 120° -->
      <g style="fill: #6b5b7b" transform="translate(111.22 84.544204) scale(0.09 -0.09)">
       <defs>
        <path id="SegoeUISymbol-14" d="M 2263 0 
L 1750 0 
L 1750 3872 
Q 1691 3813 1577 3736 
Q 1463 3659 1320 3584 
Q 1178 3509 1020 3443 
Q 863 3378 713 3341 
L 713 3859 
Q 881 3906 1070 3986 
Q 1259 4066 1442 4164 
Q 1625 4263 1787 4370 
Q 1950 4478 2069 4581 
L 2263 4581 
L 2263 0 
z
" transform="scale(0.015625)"/>
        <path id="SegoeUISymbol-15" d="M 2413 3306 
Q 2413 3513 2348 3666 
Q 2284 3819 2173 3920 
Q 2063 4022 1913 4072 
Q 1763 4122 1588 4122 
Q 1438 4122 1294 4081 
Q 1150 4041 1014 3969 
Q 878 3897 751 3797 
Q 625 3697 516 3575 
L 516 4125 
Q 731 4334 998 4445 
Q 1266 4556 1650 4556 
Q 1925 4556 2159 4476 
Q 2394 4397 2566 4244 
Q 2738 4091 2836 3866 
Q 2934 3641 2934 3350 
Q 2934 3084 2873 2868 
Q 2813 2653 2689 2462 
Q 2566 2272 2378 2097 
Q 2191 1922 1938 1741 
Q 1622 1516 1417 1356 
Q 1213 1197 1092 1058 
Q 972 919 923 780 
Q 875 641 875 459 
L 3106 459 
L 3106 0 
L 341 0 
L 341 222 
Q 341 509 403 728 
Q 466 947 609 1144 
Q 753 1341 986 1537 
Q 1219 1734 1556 1981 
Q 1800 2156 1964 2315 
Q 2128 2475 2228 2634 
Q 2328 2794 2370 2958 
Q 2413 3122 2413 3306 
z
" transform="scale(0.015625)"/>
       </defs>
       <use xlink:href="#SegoeUISymbol-14"/>
       <use xlink:href="#SegoeUISymbol-15" transform="translate(53.90625 0)"/>
       <use xlink:href="#SegoeUISymbol-13" transform="translate(107.8125 0)"/>
       <use xlink:href="#SegoeUISymbol-83" transform="translate(161.71875 0)"/>
      </g>
     </g>
    </g>
    <g id="xtick_6">
     <g id="line2d_6">
      <path d="M 224.213984 262.383027 
L 56.170415 165.363027 
" clip-path="url(#p1848dde3d5)" style="fill: none; stroke-dasharray: 1.85,0.8; stroke-dashoffset: 0; stroke: #e8e0d8; stroke-opacity: 0.8; stroke-width: 0.5"/>
     </g>
     <g id="text_6">
      <!-- 150° -->
      <g style="fill: #6b5b7b" transform="translate(35.072075 160.692129) scale(0.09 -0.09)">
       <defs>
        <path id="SegoeUISymbol-18" d="M 3028 1369 
Q 3028 1041 2915 775 
Q 2803 509 2595 318 
Q 2388 128 2094 25 
Q 1800 -78 1441 -78 
Q 816 -78 513 109 
L 513 653 
Q 969 359 1447 359 
Q 1691 359 1886 431 
Q 2081 503 2218 631 
Q 2356 759 2429 940 
Q 2503 1122 2503 1338 
Q 2503 1775 2209 2023 
Q 1916 2272 1356 2272 
Q 1266 2272 1166 2269 
Q 1066 2266 966 2261 
Q 866 2256 770 2250 
Q 675 2244 597 2234 
L 750 4481 
L 2822 4481 
L 2822 4019 
L 1194 4019 
L 1103 2703 
Q 1203 2709 1315 2714 
Q 1428 2719 1516 2719 
Q 1872 2719 2153 2625 
Q 2434 2531 2629 2357 
Q 2825 2184 2926 1932 
Q 3028 1681 3028 1369 
z
" transform="scale(0.015625)"/>
       </defs>
       <use xlink:href="#SegoeUISymbol-14"/>
       <use xlink:href="#SegoeUISymbol-18" transform="translate(53.90625 0)"/>
       <use xlink:href="#SegoeUISymbol-13" transform="translate(107.8125 0)"/>
       <use xlink:href="#SegoeUISymbol-83" transform="translate(161.71875 0)"/>
      </g>
     </g>
    </g>
    <g id="xtick_7">
     <g id="line2d_7">
      <path d="M 224.213984 262.383027 
L 30.173984 262.383027 
" clip-path="url(#p1848dde3d5)" style="fill: none; stroke-dasharray: 1.85,0.8; stroke-dashoffset: 0; stroke: #e8e0d8; stroke-opacity: 0.8; stroke-width: 0.5"/>
     </g>
     <g id="text_7">
      <!-- 180° -->
      <g style="fill: #6b5b7b" transform="translate(7.2 264.712129) scale(0.09 -0.09)">
       <defs>
        <path id="SegoeUISymbol-1b" d="M 281 1250 
Q 281 1428 337 1608 
Q 394 1788 498 1944 
Q 603 2100 758 2228 
Q 913 2356 1109 2431 
Q 819 2594 647 2848 
Q 475 3103 475 3413 
Q 475 3659 570 3868 
Q 666 4078 834 4231 
Q 1003 4384 1234 4470 
Q 1466 4556 1734 4556 
Q 2006 4556 2237 4468 
Q 2469 4381 2637 4228 
Q 2806 4075 2900 3865 
Q 2994 3656 2994 3413 
Q 2994 3103 2822 2848 
Q 2650 2594 2366 2431 
Q 2559 2356 2712 2228 
Q 2866 2100 2970 1944 
Q 3075 1788 3131 1608 
Q 3188 1428 3188 1250 
Q 3188 956 3081 712 
Q 2975 469 2783 295 
Q 2591 122 2323 25 
Q 2056 -72 1734 -72 
Q 1416 -72 1150 25 
Q 884 122 690 295 
Q 497 469 389 712 
Q 281 956 281 1250 
z
M 838 1294 
Q 838 1084 902 915 
Q 966 747 1083 628 
Q 1200 509 1367 445 
Q 1534 381 1738 381 
Q 1934 381 2100 447 
Q 2266 513 2386 631 
Q 2506 750 2573 919 
Q 2641 1088 2641 1294 
Q 2641 1481 2577 1645 
Q 2513 1809 2394 1934 
Q 2275 2059 2109 2131 
Q 1944 2203 1738 2203 
Q 1544 2203 1380 2136 
Q 1216 2069 1095 1948 
Q 975 1828 906 1661 
Q 838 1494 838 1294 
z
M 997 3372 
Q 997 3213 1055 3077 
Q 1113 2941 1214 2839 
Q 1316 2738 1450 2680 
Q 1584 2622 1738 2622 
Q 1891 2622 2027 2681 
Q 2163 2741 2263 2842 
Q 2363 2944 2422 3080 
Q 2481 3216 2481 3372 
Q 2481 3534 2423 3671 
Q 2366 3809 2266 3909 
Q 2166 4009 2030 4067 
Q 1894 4125 1738 4125 
Q 1572 4125 1436 4065 
Q 1300 4006 1201 3904 
Q 1103 3803 1050 3665 
Q 997 3528 997 3372 
z
" transform="scale(0.015625)"/>
       </defs>
       <use xlink:href="#SegoeUISymbol-14"/>
       <use xlink:href="#SegoeUISymbol-1b" transform="translate(53.90625 0)"/>
       <use xlink:href="#SegoeUISymbol-13" transform="translate(107.8125 0)"/>
       <use xlink:href="#SegoeUISymbol-83" transform="translate(161.71875 0)"/>
      </g>
     </g>
    </g>
    <g id="xtick_8">
     <g id="line2d_8">
      <path d="M 224.213984 262.383027 
L 56.170415 359.403027 
" clip-path="url(#p1848dde3d5)" style="fill: none; stroke-dasharray: 1.85,0.8; stroke-dashoffset: 0; stroke: #e8e0d8; stroke-opacity: 0.8; stroke-width: 0.5"/>
     </g>
     <g id="text_8">
      <!-- 210° -->
      <g style="fill: #6b5b7b" transform="translate(35.072075 368.732129) scale(0.09 -0.09)">
       <use xlink:href="#SegoeUISymbol-15"/>
       <use xlink:href="#SegoeUISymbol-14" transform="translate(53.90625 0)"/>
       <use xlink:href="#SegoeUISymbol-13" transform="translate(107.8125 0)"/>
       <use xlink:href="#SegoeUISymbol-83" transform="translate(161.71875 0)"/>
      </g>
     </g>
    </g>
    <g id="xtick_9">
     <g id="line2d_9">
      <path d="M 224.213984 262.383027 
L 127.193984 430.426597 
" clip-path="url(#p1848dde3d5)" style="fill: none; stroke-dasharray: 1.85,0.8; stroke-dashoffset: 0; stroke: #e8e0d8; stroke-opacity: 0.8; stroke-width: 0.5"/>
     </g>
     <g id="text_9">
      <!-- 240° -->
      <g style="fill: #6b5b7b" transform="translate(111.22 444.880054) scale(0.09 -0.09)">
       <defs>
        <path id="SegoeUISymbol-17" d="M 2656 4481 
L 2656 1522 
L 3231 1522 
L 3231 1053 
L 2656 1053 
L 2656 0 
L 2150 0 
L 2150 1053 
L 44 1053 
L 44 1497 
Q 338 1828 638 2204 
Q 938 2581 1211 2968 
Q 1484 3356 1717 3742 
Q 1950 4128 2109 4481 
L 2656 4481 
z
M 622 1522 
L 2150 1522 
L 2150 3716 
Q 1916 3306 1706 2984 
Q 1497 2663 1308 2400 
Q 1119 2138 947 1925 
Q 775 1713 622 1522 
z
" transform="scale(0.015625)"/>
       </defs>
       <use xlink:href="#SegoeUISymbol-15"/>
       <use xlink:href="#SegoeUISymbol-17" transform="translate(53.90625 0)"/>
       <use xlink:href="#SegoeUISymbol-13" transform="translate(107.8125 0)"/>
       <use xlink:href="#SegoeUISymbol-83" transform="translate(161.71875 0)"/>
      </g>
     </g>
    </g>
    <g id="xtick_10">
     <g id="line2d_10">
      <path d="M 224.213984 262.383027 
L 224.213984 456.423027 
" clip-path="url(#p1848dde3d5)" style="fill: none; stroke-dasharray: 1.85,0.8; stroke-dashoffset: 0; stroke: #e8e0d8; stroke-opacity: 0.8; stroke-width: 0.5"/>
     </g>
     <g id="text_10">
      <!-- 270° -->
      <g style="fill: #6b5b7b" transform="translate(215.24 472.752129) scale(0.09 -0.09)">
       <defs>
        <path id="SegoeUISymbol-1a" d="M 3156 4184 
Q 3053 4006 2908 3740 
Q 2763 3475 2600 3144 
Q 2438 2813 2269 2431 
Q 2100 2050 1953 1644 
Q 1806 1238 1695 820 
Q 1584 403 1534 0 
L 984 0 
Q 1041 400 1158 817 
Q 1275 1234 1423 1636 
Q 1572 2038 1737 2409 
Q 1903 2781 2059 3093 
Q 2216 3406 2345 3645 
Q 2475 3884 2553 4019 
L 306 4019 
L 306 4481 
L 3156 4481 
L 3156 4184 
z
" transform="scale(0.015625)"/>
       </defs>
       <use xlink:href="#SegoeUISymbol-15"/>
       <use xlink:href="#SegoeUISymbol-1a" transform="translate(53.90625 0)"/>
       <use xlink:href="#SegoeUISymbol-13" transform="translate(107.8125 0)"/>
       <use xlink:href="#SegoeUISymbol-83" transform="translate(161.71875 0)"/>
      </g>
     </g>
    </g>
    <g id="xtick_11">
     <g id="line2d_11">
      <path d="M 224.213984 262.383027 
L 321.233984 430.426597 
" clip-path="url(#p1848dde3d5)" style="fill: none; stroke-dasharray: 1.85,0.8; stroke-dashoffset: 0; stroke: #e8e0d8; stroke-opacity: 0.8; stroke-width: 0.5"/>
     </g>
     <g id="text_11">
      <!-- 300° -->
      <g style="fill: #6b5b7b" transform="translate(319.26 444.880054) scale(0.09 -0.09)">
       <use xlink:href="#SegoeUISymbol-16"/>
       <use xlink:href="#SegoeUISymbol-13" transform="translate(53.90625 0)"/>
       <use xlink:href="#SegoeUISymbol-13" transform="translate(107.8125 0)"/>
       <use xlink:href="#SegoeUISymbol-83" transform="translate(161.71875 0)"/>
      </g>
     </g>
    </g>
    <g id="xtick_12">
     <g id="line2d_12">
      <path d="M 224.213984 262.383027 
L 392.257554 359.403027 
" clip-path="url(#p1848dde3d5)" style="fill: none; stroke-dasharray: 1.85,0.8; stroke-dashoffset: 0; stroke: #e8e0d8; stroke-opacity: 0.8; stroke-width: 0.5"/>
     </g>
     <g id="text_12">
      <!-- 330° -->
      <g style="fill: #6b5b7b" transform="translate(395.407925 368.732129) scale(0.09 -0.09)">
       <use xlink:href="#SegoeUISymbol-16"/>
       <use xlink:href="#SegoeUISymbol-16" transform="translate(53.90625 0)"/>
       <use xlink:href="#SegoeUISymbol-13" transform="translate(107.8125 0)"/>
       <use xlink:href="#SegoeUISymbol-83" transform="translate(161.71875 0)"/>
      </g>
     </g>
    </g>
   </g>
   <g id="matplotlib.axis_2">
    <g id="ytick_1">
     <g id="line2d_13">
      <path d="M 251.933984 262.383027 
C 251.933984 258.74287 251.216953 255.138109 249.823925 251.775043 
C 248.430897 248.411976 246.388964 245.356007 243.814984 242.782027 
C 241.241005 240.208048 238.185036 238.166114 234.821969 236.773087 
C 231.458903 235.380059 227.854141 234.663027 224.213984 234.663027 
C 220.573827 234.663027 216.969066 235.380059 213.606 236.773087 
C 210.242933 238.166114 207.186964 240.208048 204.612984 242.782027 
C 202.039005 245.356007 199.997072 248.411976 198.604044 251.775043 
C 197.211016 255.138109 196.493984 258.74287 196.493984 262.383027 
C 196.493984 266.023184 197.211016 269.627945 198.604044 272.991012 
C 199.997072 276.354079 202.039005 279.410048 204.612984 281.984027 
C 207.186964 284.558007 210.242933 286.59994 213.606 287.992968 
C 216.969066 289.385996 220.573827 290.103027 224.213984 290.103027 
C 227.854141 290.103027 231.458903 289.385996 234.821969 287.992968 
C 238.185036 286.59994 241.241005 284.558007 243.814984 281.984027 
C 246.388964 279.410048 248.430897 276.354079 249.823925 272.991012 
C 251.216953 269.627945 251.933984 266.023184 251.933984 262.383027 
" clip-path="url(#p1848dde3d5)" style="fill: none; stroke-dasharray: 1.85,0.8; stroke-dashoffset: 0; stroke: #e8e0d8; stroke-opacity: 0.8; stroke-width: 0.5"/>
     </g>
     <g id="text_13">
      <!-- 0.2 -->
      <g style="fill: #6b5b7b" transform="translate(249.823925 249.881) scale(0.09 -0.09)">
       <defs>
        <path id="SegoeUISymbol-11" d="M 697 -69 
Q 553 -69 451 34 
Q 350 138 350 281 
Q 350 425 451 529 
Q 553 634 697 634 
Q 844 634 947 529 
Q 1050 425 1050 281 
Q 1050 138 947 34 
Q 844 -69 697 -69 
z
" transform="scale(0.015625)"/>
       </defs>
       <use xlink:href="#SegoeUISymbol-13"/>
       <use xlink:href="#SegoeUISymbol-11" transform="translate(53.90625 0)"/>
       <use xlink:href="#SegoeUISymbol-15" transform="translate(75.59375 0)"/>
      </g>
     </g>
    </g>
    <g id="ytick_2">
     <g id="line2d_14">
      <path d="M 279.653984 262.383027 
C 279.653984 255.102713 278.219921 247.893191 275.433866 241.167058 
C 272.64781 234.440925 268.563944 228.328987 263.415984 223.181027 
C 258.268025 218.033068 252.156087 213.949202 245.429954 211.163146 
C 238.703821 208.37709 231.494298 206.943027 224.213984 206.943027 
C 216.93367 206.943027 209.724148 208.37709 202.998015 211.163146 
C 196.271882 213.949202 190.159944 218.033068 185.011984 223.181027 
C 179.864025 228.328987 175.780159 234.440925 172.994103 241.167058 
C 170.208048 247.893191 168.773984 255.102713 168.773984 262.383027 
C 168.773984 269.663341 170.208048 276.872864 172.994103 283.598997 
C 175.780159 290.32513 179.864025 296.437068 185.011984 301.585027 
C 190.159944 306.732987 196.271882 310.816853 202.998015 313.602909 
C 209.724148 316.388964 216.93367 317.823027 224.213984 317.823027 
C 231.494298 317.823027 238.703821 316.388964 245.429954 313.602909 
C 252.156087 310.816853 258.268025 306.732987 263.415984 301.585027 
C 268.563944 296.437068 272.64781 290.32513 275.433866 283.598997 
C 278.219921 276.872864 279.653984 269.663341 279.653984 262.383027 
" clip-path="url(#p1848dde3d5)" style="fill: none; stroke-dasharray: 1.85,0.8; stroke-dashoffset: 0; stroke: #e8e0d8; stroke-opacity: 0.8; stroke-width: 0.5"/>
     </g>
     <g id="text_14">
      <!-- 0.4 -->
      <g style="fill: #6b5b7b" transform="translate(275.433866 239.273015) scale(0.09 -0.09)">
       <use xlink:href="#SegoeUISymbol-13"/>
       <use xlink:href="#SegoeUISymbol-11" transform="translate(53.90625 0)"/>
       <use xlink:href="#SegoeUISymbol-17" transform="translate(75.59375 0)"/>
      </g>
     </g>
    </g>
    <g id="ytick_3">
     <g id="line2d_15">
      <path d="M 307.373984 262.383027 
C 307.373984 251.462556 305.22289 240.648273 301.043806 230.559073 
C 296.864723 220.469873 290.738923 211.301967 283.016984 203.580027 
C 275.295045 195.858088 266.127138 189.732289 256.037939 185.553205 
C 245.948739 181.374122 235.134456 179.223027 224.213984 179.223027 
C 213.293513 179.223027 202.47923 181.374122 192.39003 185.553205 
C 182.30083 189.732289 173.132924 195.858088 165.410984 203.580027 
C 157.689045 211.301967 151.563246 220.469873 147.384162 230.559073 
C 143.205079 240.648273 141.053984 251.462556 141.053984 262.383027 
C 141.053984 273.303498 143.205079 284.117782 147.384162 294.206982 
C 151.563246 304.296181 157.689045 313.464088 165.410984 321.186027 
C 173.132924 328.907966 182.30083 335.033766 192.39003 339.212849 
C 202.47923 343.391933 213.293513 345.543027 224.213984 345.543027 
C 235.134456 345.543027 245.948739 343.391933 256.037939 339.212849 
C 266.127138 335.033766 275.295045 328.907966 283.016984 321.186027 
C 290.738923 313.464088 296.864723 304.296181 301.043806 294.206982 
C 305.22289 284.117782 307.373984 273.303498 307.373984 262.383027 
" clip-path="url(#p1848dde3d5)" style="fill: none; stroke-dasharray: 1.85,0.8; stroke-dashoffset: 0; stroke: #e8e0d8; stroke-opacity: 0.8; stroke-width: 0.5"/>
     </g>
     <g id="text_15">
      <!-- 0.6 -->
      <g style="fill: #6b5b7b" transform="translate(301.043806 228.66503) scale(0.09 -0.09)">
       <use xlink:href="#SegoeUISymbol-13"/>
       <use xlink:href="#SegoeUISymbol-11" transform="translate(53.90625 0)"/>
       <use xlink:href="#SegoeUISymbol-19" transform="translate(75.59375 0)"/>
      </g>
     </g>
    </g>
    <g id="ytick_4">
     <g id="line2d_16">
      <path d="M 335.093984 262.383027 
C 335.093984 247.822399 332.225858 233.403355 326.653747 219.951088 
C 321.081636 206.498822 312.913903 194.274946 302.617984 183.979027 
C 292.322065 173.683109 280.09819 165.515376 266.645923 159.943265 
C 253.193657 154.371154 238.774613 151.503027 224.213984 151.503027 
C 209.653356 151.503027 195.234312 154.371154 181.782045 159.943265 
C 168.329779 165.515376 156.105903 173.683109 145.809984 183.979027 
C 135.514066 194.274946 127.346333 206.498822 121.774222 219.951088 
C 116.202111 233.403355 113.333984 247.822399 113.333984 262.383027 
C 113.333984 276.943656 116.202111 291.3627 121.774222 304.814966 
C 127.346333 318.267233 135.514066 330.491108 145.809984 340.787027 
C 156.105903 351.082946 168.329779 359.250679 181.782045 364.82279 
C 195.234312 370.394901 209.653356 373.263027 224.213984 373.263027 
C 238.774613 373.263027 253.193657 370.394901 266.645923 364.82279 
C 280.09819 359.250679 292.322065 351.082946 302.617984 340.787027 
C 312.913903 330.491108 321.081636 318.267233 326.653747 304.814966 
C 332.225858 291.3627 335.093984 276.943656 335.093984 262.383027 
" clip-path="url(#p1848dde3d5)" style="fill: none; stroke-dasharray: 1.85,0.8; stroke-dashoffset: 0; stroke: #e8e0d8; stroke-opacity: 0.8; stroke-width: 0.5"/>
     </g>
     <g id="text_16">
      <!-- 0.8 -->
      <g style="fill: #6b5b7b" transform="translate(326.653747 218.057045) scale(0.09 -0.09)">
       <use xlink:href="#SegoeUISymbol-13"/>
       <use xlink:href="#SegoeUISymbol-11" transform="translate(53.90625 0)"/>
       <use xlink:href="#SegoeUISymbol-1b" transform="translate(75.59375 0)"/>
      </g>
     </g>
    </g>
    <g id="ytick_5">
     <g id="line2d_17">
      <path d="M 362.813984 262.383027 
C 362.813984 244.182242 359.228827 226.158437 352.263688 209.343104 
C 345.298549 192.527771 335.088883 177.247926 322.218984 164.378027 
C 309.349086 151.508129 294.069241 141.298463 277.253908 134.333324 
C 260.438575 127.368185 242.41477 123.783027 224.213984 123.783027 
C 206.013199 123.783027 187.989394 127.368185 171.174061 134.333324 
C 154.358728 141.298463 139.078883 151.508129 126.208985 164.378027 
C 113.339086 177.247926 103.12942 192.527771 96.164281 209.343104 
C 89.199142 226.158437 85.613984 244.182242 85.613984 262.383027 
C 85.613984 280.583813 89.199142 298.607618 96.164281 315.422951 
C 103.12942 332.238284 113.339086 347.518129 126.208985 360.388027 
C 139.078883 373.257926 154.358728 383.467592 171.174061 390.432731 
C 187.989394 397.39787 206.013199 400.983027 224.213984 400.983027 
C 242.41477 400.983027 260.438575 397.39787 277.253908 390.432731 
C 294.069241 383.467592 309.349086 373.257926 322.218984 360.388027 
C 335.088883 347.518129 345.298549 332.238284 352.263688 315.422951 
C 359.228827 298.607618 362.813984 280.583813 362.813984 262.383027 
" clip-path="url(#p1848dde3d5)" style="fill: none; stroke-dasharray: 1.85,0.8; stroke-dashoffset: 0; stroke: #e8e0d8; stroke-opacity: 0.8; stroke-width: 0.5"/>
     </g>
     <g id="text_17">
      <!-- 1.0 -->
      <g style="fill: #6b5b7b" transform="translate(352.263688 207.449061) scale(0.09 -0.09)">
       <use xlink:href="#SegoeUISymbol-14"/>
       <use xlink:href="#SegoeUISymbol-11" transform="translate(53.90625 0)"/>
       <use xlink:href="#SegoeUISymbol-13" transform="translate(75.59375 0)"/>
      </g>
     </g>
    </g>
    <g id="ytick_6">
     <g id="line2d_18">
      <path d="M 390.533984 262.383027 
C 390.533984 240.542085 386.231795 218.913518 377.873628 198.735119 
C 369.515461 178.556719 357.263863 160.220906 341.819984 144.777027 
C 326.376106 129.333149 308.040292 117.08155 287.861893 108.723383 
C 267.683493 100.365217 246.054927 96.063027 224.213984 96.063027 
C 202.373042 96.063027 180.744475 100.365217 160.566076 108.723383 
C 140.387676 117.08155 122.051863 129.333149 106.607985 144.777027 
C 91.164106 160.220906 78.912507 178.556719 70.554341 198.735119 
C 62.196174 218.913518 57.893984 240.542085 57.893984 262.383027 
C 57.893984 284.22397 62.196174 305.852536 70.554341 326.030936 
C 78.912507 346.209335 91.164106 364.545149 106.607985 379.989027 
C 122.051863 395.432906 140.387676 407.684504 160.566076 416.042671 
C 180.744475 424.400838 202.373042 428.703027 224.213984 428.703027 
C 246.054927 428.703027 267.683493 424.400838 287.861893 416.042671 
C 308.040292 407.684504 326.376106 395.432906 341.819984 379.989027 
C 357.263863 364.545149 369.515461 346.209335 377.873628 326.030936 
C 386.231795 305.852536 390.533984 284.22397 390.533984 262.383027 
" clip-path="url(#p1848dde3d5)" style="fill: none; stroke-dasharray: 1.85,0.8; stroke-dashoffset: 0; stroke: #e8e0d8; stroke-opacity: 0.8; stroke-width: 0.5"/>
     </g>
     <g id="text_18">
      <!-- 1.2 -->
      <g style="fill: #6b5b7b" transform="translate(377.873628 196.841076) scale(0.09 -0.09)">
       <use xlink:href="#SegoeUISymbol-14"/>
       <use xlink:href="#SegoeUISymbol-11" transform="translate(53.90625 0)"/>
       <use xlink:href="#SegoeUISymbol-15" transform="translate(75.59375 0)"/>
      </g>
     </g>
    </g>
    <g id="ytick_7">
     <g id="line2d_19">
      <path d="M 418.253984 262.383027 
C 418.253984 236.901928 413.234763 211.6686 403.483569 188.127134 
C 393.732374 164.585668 379.438842 143.193886 361.420984 125.176028 
C 343.403126 107.158169 322.011344 92.864637 298.469878 83.113443 
C 274.928411 73.362248 249.695084 68.343027 224.213984 68.343027 
C 198.732885 68.343027 173.499557 73.362248 149.958091 83.113443 
C 126.416625 92.864637 105.024843 107.158169 87.006985 125.176028 
C 68.989126 143.193886 54.695594 164.585668 44.9444 188.127134 
C 35.193205 211.6686 30.173984 236.901928 30.173984 262.383027 
C 30.173984 287.864127 35.193205 313.097454 44.9444 336.638921 
C 54.695594 360.180387 68.989126 381.572169 87.006985 399.590027 
C 105.024843 417.607885 126.416625 431.901417 149.958091 441.652612 
C 173.499557 451.403806 198.732885 456.423027 224.213984 456.423027 
C 249.695084 456.423027 274.928411 451.403806 298.469878 441.652612 
C 322.011344 431.901417 343.403126 417.607885 361.420984 399.590027 
C 379.438842 381.572169 393.732374 360.180387 403.483569 336.638921 
C 413.234763 313.097454 418.253984 287.864127 418.253984 262.383027 
" clip-path="url(#p1848dde3d5)" style="fill: none; stroke-dasharray: 1.85,0.8; stroke-dashoffset: 0; stroke: #e8e0d8; stroke-opacity: 0.8; stroke-width: 0.5"/>
     </g>
     <g id="text_19">
      <!-- 1.4 -->
      <g style="fill: #6b5b7b" transform="translate(403.483569 186.233091) scale(0.09 -0.09)">
       <use xlink:href="#SegoeUISymbol-14"/>
       <use xlink:href="#SegoeUISymbol-11" transform="translate(53.90625 0)"/>
       <use xlink:href="#SegoeUISymbol-17" transform="translate(75.59375 0)"/>
      </g>
     </g>
    </g>
   </g>
   <g id="patch_3">
    <path d="M 418.253984 262.383027 
C 418.253984 236.901928 413.234763 211.6686 403.483569 188.127134 
C 393.732374 164.585668 379.438842 143.193886 361.420984 125.176028 
C 343.403126 107.158169 322.011344 92.864637 298.469878 83.113443 
C 274.928411 73.362248 249.695084 68.343027 224.213984 68.343027 
C 198.732885 68.343027 173.499557 73.362248 149.958091 83.113443 
C 126.416625 92.864637 105.024843 107.158169 87.006985 125.176028 
C 68.989126 143.193886 54.695594 164.585668 44.9444 188.127134 
C 35.193205 211.6686 30.173984 236.901928 30.173984 262.383027 
C 30.173984 287.864127 35.193205 313.097454 44.9444 336.638921 
C 54.695594 360.180387 68.989126 381.572169 87.006985 399.590027 
C 105.024843 417.607885 126.416625 431.901417 149.958091 441.652612 
C 173.499557 451.403806 198.732885 456.423027 224.213984 456.423027 
C 249.695084 456.423027 274.928411 451.403806 298.469878 441.652612 
C 322.011344 431.901417 343.403126 417.607885 361.420984 399.590027 
C 379.438842 381.572169 393.732374 360.180387 403.483569 336.638921 
C 413.234763 313.097454 418.253984 287.864127 418.253984 262.383027 
" style="fill: none; stroke: #c9a96e; stroke-width: 0.8; stroke-linejoin: miter; stroke-linecap: square"/>
   </g>
   <g id="text_20">
    <!-- Koç -->
    <g style="fill: #6b5b7b" transform="translate(395.280093 216.84138) scale(0.07 -0.07)">
     <defs>
      <path id="SegoeUISymbol-2e" d="M 3706 0 
L 2975 0 
L 1244 2050 
Q 1147 2166 1125 2206 
L 1113 2206 
L 1113 0 
L 588 0 
L 588 4481 
L 1113 4481 
L 1113 2375 
L 1125 2375 
Q 1169 2444 1244 2528 
L 2919 4481 
L 3572 4481 
L 1650 2331 
L 3706 0 
z
" transform="scale(0.015625)"/>
      <path id="SegoeUISymbol-52" d="M 1856 -75 
Q 1147 -75 723 373 
Q 300 822 300 1563 
Q 300 2369 740 2822 
Q 1181 3275 1931 3275 
Q 2647 3275 3048 2834 
Q 3450 2394 3450 1613 
Q 3450 847 3017 386 
Q 2584 -75 1856 -75 
z
M 1894 2844 
Q 1400 2844 1112 2508 
Q 825 2172 825 1581 
Q 825 1013 1115 684 
Q 1406 356 1894 356 
Q 2391 356 2658 678 
Q 2925 1000 2925 1594 
Q 2925 2194 2658 2519 
Q 2391 2844 1894 2844 
z
" transform="scale(0.015625)"/>
      <path id="SegoeUISymbol-6f" d="M 2700 147 
Q 2331 -75 1825 -75 
Q 1141 -75 720 370 
Q 300 816 300 1525 
Q 300 2316 753 2795 
Q 1206 3275 1963 3275 
Q 2384 3275 2706 3119 
L 2706 2594 
Q 2350 2844 1944 2844 
Q 1453 2844 1139 2492 
Q 825 2141 825 1569 
Q 825 1006 1120 681 
Q 1416 356 1913 356 
Q 2331 356 2700 634 
L 2700 147 
z
M 2431 -800 
Q 2431 -1350 1572 -1350 
Q 1453 -1350 1368 -1344 
L 1368 -1063 
Q 1503 -1081 1587 -1081 
Q 2028 -1081 2028 -800 
Q 2028 -556 1625 -556 
Q 1593 -556 1497 -569 
L 1497 0 
L 1834 0 
L 1834 -325 
Q 2109 -325 2270 -450 
Q 2431 -575 2431 -800 
z
" transform="scale(0.015625)"/>
     </defs>
     <use xlink:href="#SegoeUISymbol-2e"/>
     <use xlink:href="#SegoeUISymbol-52" transform="translate(56.703125 0)"/>
     <use xlink:href="#SegoeUISymbol-6f" transform="translate(115.296875 0)"/>
    </g>
   </g>
   <g id="text_21">
    <!-- Boğa -->
    <g style="fill: #6b5b7b" transform="translate(345.681522 134.740929) scale(0.07 -0.07)">
     <defs>
      <path id="SegoeUISymbol-25" d="M 588 0 
L 588 4481 
L 1863 4481 
Q 2444 4481 2784 4197 
Q 3125 3913 3125 3456 
Q 3125 3075 2919 2794 
Q 2713 2513 2350 2394 
L 2350 2381 
Q 2803 2328 3075 2039 
Q 3347 1750 3347 1288 
Q 3347 713 2934 356 
Q 2522 0 1894 0 
L 588 0 
z
M 1113 4006 
L 1113 2559 
L 1650 2559 
Q 2081 2559 2328 2767 
Q 2575 2975 2575 3353 
Q 2575 4006 1716 4006 
L 1113 4006 
z
M 1113 2088 
L 1113 475 
L 1825 475 
Q 2288 475 2542 694 
Q 2797 913 2797 1294 
Q 2797 2088 1716 2088 
L 1113 2088 
z
" transform="scale(0.015625)"/>
      <path id="SegoeUISymbol-4a" d="M 3250 256 
Q 3250 -1506 1563 -1506 
Q 969 -1506 525 -1281 
L 525 -769 
Q 1066 -1069 1556 -1069 
Q 2738 -1069 2738 188 
L 2738 538 
L 2725 538 
Q 2359 -75 1625 -75 
Q 1028 -75 664 351 
Q 300 778 300 1497 
Q 300 2313 692 2794 
Q 1084 3275 1766 3275 
Q 2413 3275 2725 2756 
L 2738 2756 
L 2738 3200 
L 3250 3200 
L 3250 256 
z
M 2738 1447 
L 2738 1919 
Q 2738 2300 2480 2572 
Q 2222 2844 1838 2844 
Q 1363 2844 1094 2498 
Q 825 2153 825 1531 
Q 825 997 1083 676 
Q 1341 356 1766 356 
Q 2197 356 2467 662 
Q 2738 969 2738 1447 
z
" transform="scale(0.015625)"/>
      <path id="SegoeUISymbol-1baa" d="M 856 4594 
Q 825 4244 581 4025 
Q 338 3806 -13 3806 
Q -378 3806 -611 4022 
Q -844 4238 -856 4594 
L -544 4594 
Q -506 4109 -6 4109 
Q 206 4109 357 4240 
Q 509 4372 538 4594 
L 856 4594 
z
" transform="scale(0.015625)"/>
      <path id="SegoeUISymbol-44" d="M 2809 0 
L 2297 0 
L 2297 500 
L 2284 500 
Q 1950 -75 1300 -75 
Q 822 -75 551 178 
Q 281 431 281 850 
Q 281 1747 1338 1894 
L 2297 2028 
Q 2297 2844 1638 2844 
Q 1059 2844 594 2450 
L 594 2975 
Q 1066 3275 1681 3275 
Q 2809 3275 2809 2081 
L 2809 0 
z
M 2297 1619 
L 1525 1513 
Q 1169 1463 987 1336 
Q 806 1209 806 888 
Q 806 653 973 504 
Q 1141 356 1419 356 
Q 1800 356 2048 623 
Q 2297 891 2297 1300 
L 2297 1619 
z
" transform="scale(0.015625)"/>
     </defs>
     <use xlink:href="#SegoeUISymbol-25"/>
     <use xlink:href="#SegoeUISymbol-52" transform="translate(57.328125 0)"/>
     <use xlink:href="#SegoeUISymbol-4a" transform="translate(115.921875 0)"/>
     <use xlink:href="#SegoeUISymbol-1baa" transform="translate(174.8125 0)"/>
     <use xlink:href="#SegoeUISymbol-44" transform="translate(174.8125 0)"/>
    </g>
   </g>
   <g id="text_22">
    <!-- İkizler -->
    <g style="fill: #6b5b7b" transform="translate(259.484431 87.560503) scale(0.07 -0.07)">
     <defs>
      <path id="LastResortHE-Regular-4" d="M 6731 -747 
L 6731 4250 
Q 6731 4409 6656 4534 
Q 6581 4663 6453 4738 
Q 6325 4813 6169 4813 
L 1175 4813 
Q 1019 4813 891 4738 
Q 763 4663 688 4534 
Q 613 4406 613 4250 
L 613 -747 
Q 613 -903 688 -1031 
Q 763 -1159 891 -1234 
Q 1019 -1309 1175 -1309 
L 6169 -1309 
Q 6328 -1309 6453 -1234 
Q 6581 -1159 6656 -1031 
Q 6731 -903 6731 -747 
z
M 5494 4266 
L 5494 4469 
L 5409 4469 
L 5409 4266 
L 5297 4266 
L 5297 4631 
Q 5297 4738 5397 4738 
L 5506 4738 
Q 5609 4738 5609 4628 
L 5609 4266 
L 5494 4266 
z
M 4750 4669 
L 4750 4266 
L 4634 4266 
L 4634 4669 
L 4534 4669 
L 4534 4738 
L 4850 4738 
L 4850 4669 
L 4750 4669 
z
M 4291 4266 
L 4291 4422 
L 4278 4456 
L 4250 4469 
L 4219 4456 
L 4206 4422 
L 4206 4266 
L 4094 4266 
L 4094 4400 
Q 4094 4475 4166 4500 
Q 4094 4525 4094 4603 
L 4094 4738 
L 4206 4738 
L 4206 4578 
L 4219 4547 
L 4250 4534 
L 4278 4547 
L 4291 4578 
L 4291 4738 
L 4406 4738 
L 4406 4603 
Q 4406 4525 4334 4500 
Q 4406 4475 4406 4400 
L 4406 4266 
L 4291 4266 
z
M 3725 4266 
L 3725 4738 
L 3984 4738 
L 3984 4669 
L 3838 4669 
L 3838 4534 
L 3938 4534 
L 3938 4469 
L 3838 4469 
L 3838 4331 
L 3984 4331 
L 3984 4266 
L 3725 4266 
z
M 3378 4266 
L 3113 4509 
L 3113 4266 
L 3047 4266 
L 3047 4738 
L 3078 4738 
L 3347 4494 
L 3347 4738 
L 3413 4738 
L 3413 4266 
L 3378 4266 
z
M 2847 4266 
L 2847 4738 
L 2953 4738 
L 2953 4266 
L 2847 4266 
z
M 2659 4669 
L 2659 4266 
L 2544 4266 
L 2544 4669 
L 2444 4669 
L 2444 4738 
L 2759 4738 
L 2759 4669 
L 2659 4669 
z
M 2269 4266 
L 2269 4469 
L 2184 4469 
L 2184 4266 
L 2072 4266 
L 2072 4631 
Q 2072 4738 2172 4738 
L 2281 4738 
Q 2384 4738 2384 4628 
L 2384 4266 
L 2269 4266 
z
M 1734 4266 
L 1734 4738 
L 1847 4738 
L 1847 4331 
L 1997 4331 
L 1997 4266 
L 1734 4266 
z
M 2269 4625 
L 2256 4656 
L 2228 4669 
L 2197 4656 
L 2184 4625 
L 2184 4534 
L 2269 4534 
L 2269 4625 
z
M 5494 4625 
L 5481 4656 
L 5453 4669 
L 5422 4656 
L 5409 4625 
L 5409 4534 
L 5494 4534 
L 5494 4625 
z
M 4875 4266 
L 4875 4372 
L 4978 4372 
L 4978 4266 
L 4875 4266 
z
M 6122 3750 
L 6122 -247 
Q 6122 -372 6063 -472 
Q 6003 -575 5900 -636 
Q 5797 -697 5672 -697 
L 1672 -697 
Q 1553 -697 1447 -634 
Q 1344 -572 1283 -470 
Q 1222 -369 1222 -247 
L 1222 3750 
Q 1222 3872 1284 3978 
Q 1347 4078 1448 4139 
Q 1550 4200 1672 4200 
L 5672 4200 
Q 5800 4200 5900 4141 
Q 6000 4081 6061 3978 
Q 6122 3875 6122 3750 
z
M 4191 3734 
L 4072 3734 
Q 4053 3641 3994 3563 
Q 3934 3484 3850 3436 
Q 3766 3388 3672 3388 
Q 3575 3388 3494 3438 
Q 3316 3538 3275 3734 
L 3156 3734 
Q 3272 3131 3675 3131 
Q 4088 3131 4191 3734 
z
M 5156 119 
Q 5075 119 5025 159 
Q 4975 197 4931 283 
Q 4888 369 4828 506 
L 3744 3059 
L 3622 3059 
L 2572 506 
Q 2513 366 2469 284 
Q 2422 197 2358 158 
Q 2294 119 2188 119 
L 2188 0 
L 2916 0 
L 2916 119 
Q 2688 147 2688 256 
Q 2688 297 2947 938 
L 4238 938 
Q 4509 288 4509 231 
Q 4509 119 4281 119 
L 4281 0 
L 5156 0 
L 5156 119 
z
M 1091 2819 
L 1091 2556 
Q 1091 2444 978 2444 
L 856 2444 
Q 744 2444 744 2550 
L 744 2825 
Q 744 2931 856 2931 
L 978 2931 
Q 1091 2931 1091 2819 
z
M 6600 2819 
L 6600 2556 
Q 6600 2444 6488 2444 
L 6366 2444 
Q 6253 2444 6253 2550 
L 6253 2825 
Q 6253 2931 6366 2931 
L 6488 2931 
Q 6600 2931 6600 2819 
z
M 6472 2816 
L 6459 2850 
L 6425 2863 
L 6394 2850 
L 6378 2816 
L 6378 2556 
L 6394 2525 
L 6425 2513 
L 6459 2525 
L 6472 2556 
L 6472 2816 
z
M 966 2816 
L 950 2850 
L 919 2863 
L 884 2850 
L 872 2816 
L 872 2556 
L 884 2525 
L 919 2513 
L 950 2525 
L 966 2556 
L 966 2816 
z
M 3003 1084 
L 3572 2484 
L 4163 1084 
L 3003 1084 
z
M 888 1822 
L 888 2188 
L 841 2188 
L 841 2250 
L 941 2306 
L 997 2306 
L 997 1822 
L 888 1822 
z
M 6397 1822 
L 6397 2188 
L 6347 2188 
L 6347 2250 
L 6447 2306 
L 6503 2306 
L 6503 1822 
L 6397 1822 
z
M 1091 1581 
L 1091 1316 
Q 1091 1203 978 1203 
L 856 1203 
Q 744 1203 744 1313 
L 744 1584 
Q 744 1694 856 1694 
L 978 1694 
Q 1091 1694 1091 1581 
z
M 6550 1513 
Q 6484 1381 6484 1213 
L 6369 1213 
L 6369 1322 
Q 6369 1369 6469 1584 
L 6469 1628 
L 6269 1628 
L 6269 1694 
L 6584 1694 
L 6584 1581 
L 6550 1513 
z
M 966 1578 
L 950 1613 
L 919 1625 
L 884 1613 
L 872 1578 
L 872 1319 
L 884 1288 
L 919 1272 
L 950 1288 
L 966 1319 
L 966 1578 
z
M 6391 991 
L 6391 881 
L 6538 881 
L 6538 794 
L 6391 794 
L 6391 588 
L 6263 588 
L 6263 1078 
L 6581 1078 
L 6581 991 
L 6391 991 
z
M 1091 963 
L 1091 700 
Q 1091 588 978 588 
L 856 588 
Q 744 588 744 694 
L 744 969 
Q 744 1075 856 1075 
L 978 1075 
Q 1091 1075 1091 963 
z
M 966 963 
L 950 994 
L 919 1006 
L 884 994 
L 872 963 
L 872 703 
L 884 669 
L 919 656 
L 950 669 
L 966 703 
L 966 963 
z
M 4291 -1234 
L 4291 -1078 
L 4278 -1044 
L 4250 -1031 
L 4219 -1044 
L 4206 -1078 
L 4206 -1234 
L 4094 -1234 
L 4094 -1100 
Q 4094 -1025 4166 -1000 
Q 4094 -975 4094 -897 
L 4094 -763 
L 4206 -763 
L 4206 -922 
L 4219 -953 
L 4250 -966 
L 4278 -953 
L 4291 -922 
L 4291 -763 
L 4406 -763 
L 4406 -897 
Q 4406 -975 4334 -1000 
Q 4406 -1025 4406 -1100 
L 4406 -1234 
L 4291 -1234 
z
M 3725 -1234 
L 3725 -763 
L 3984 -763 
L 3984 -831 
L 3838 -831 
L 3838 -966 
L 3938 -966 
L 3938 -1031 
L 3838 -1031 
L 3838 -1169 
L 3984 -1169 
L 3984 -1234 
L 3725 -1234 
z
M 3378 -1234 
L 3113 -991 
L 3113 -1234 
L 3047 -1234 
L 3047 -763 
L 3078 -763 
L 3347 -1006 
L 3347 -763 
L 3413 -763 
L 3413 -1234 
L 3378 -1234 
z
M 2847 -1234 
L 2847 -763 
L 2953 -763 
L 2953 -1234 
L 2847 -1234 
z
M 2659 -831 
L 2659 -1234 
L 2544 -1234 
L 2544 -831 
L 2444 -831 
L 2444 -763 
L 2759 -763 
L 2759 -831 
L 2659 -831 
z
M 2269 -1234 
L 2269 -1031 
L 2184 -1031 
L 2184 -1234 
L 2072 -1234 
L 2072 -869 
Q 2072 -763 2172 -763 
L 2281 -763 
Q 2384 -763 2384 -872 
L 2384 -1234 
L 2269 -1234 
z
M 1734 -1234 
L 1734 -763 
L 1847 -763 
L 1847 -1169 
L 1997 -1169 
L 1997 -1234 
L 1734 -1234 
z
M 4750 -831 
L 4750 -1234 
L 4634 -1234 
L 4634 -831 
L 4534 -831 
L 4534 -763 
L 4850 -763 
L 4850 -831 
L 4750 -831 
z
M 5494 -1234 
L 5494 -1031 
L 5409 -1031 
L 5409 -1234 
L 5297 -1234 
L 5297 -869 
Q 5297 -763 5397 -763 
L 5506 -763 
Q 5609 -763 5609 -872 
L 5609 -1234 
L 5494 -1234 
z
M 5494 -875 
L 5481 -844 
L 5453 -831 
L 5422 -844 
L 5409 -875 
L 5409 -966 
L 5494 -966 
L 5494 -875 
z
M 2269 -875 
L 2256 -844 
L 2228 -831 
L 2197 -844 
L 2184 -875 
L 2184 -966 
L 2269 -966 
L 2269 -875 
z
M 4875 -1234 
L 4875 -1128 
L 4978 -1128 
L 4978 -1234 
L 4875 -1234 
z
" transform="scale(0.015625)"/>
      <path id="SegoeUISymbol-4e" d="M 3175 0 
L 2456 0 
L 1044 1538 
L 1031 1538 
L 1031 0 
L 519 0 
L 519 4738 
L 1031 4738 
L 1031 1734 
L 1044 1734 
L 2388 3200 
L 3059 3200 
L 1575 1656 
L 3175 0 
z
" transform="scale(0.015625)"/>
      <path id="SegoeUISymbol-4c" d="M 781 4013 
Q 644 4013 547 4106 
Q 450 4200 450 4344 
Q 450 4488 547 4583 
Q 644 4678 781 4678 
Q 922 4678 1020 4583 
Q 1119 4488 1119 4344 
Q 1119 4206 1020 4109 
Q 922 4013 781 4013 
z
M 1031 0 
L 519 0 
L 519 3200 
L 1031 3200 
L 1031 0 
z
" transform="scale(0.015625)"/>
      <path id="SegoeUISymbol-5d" d="M 2750 3053 
L 856 438 
L 2731 438 
L 2731 0 
L 103 0 
L 103 159 
L 1997 2763 
L 281 2763 
L 281 3200 
L 2750 3200 
L 2750 3053 
z
" transform="scale(0.015625)"/>
      <path id="SegoeUISymbol-4f" d="M 1031 0 
L 519 0 
L 519 4738 
L 1031 4738 
L 1031 0 
z
" transform="scale(0.015625)"/>
      <path id="SegoeUISymbol-48" d="M 3091 1472 
L 831 1472 
Q 844 938 1119 647 
Q 1394 356 1875 356 
Q 2416 356 2869 713 
L 2869 231 
Q 2447 -75 1753 -75 
Q 1075 -75 687 361 
Q 300 797 300 1588 
Q 300 2334 723 2804 
Q 1147 3275 1775 3275 
Q 2403 3275 2747 2869 
Q 3091 2463 3091 1741 
L 3091 1472 
z
M 2566 1906 
Q 2563 2350 2352 2597 
Q 2141 2844 1766 2844 
Q 1403 2844 1150 2584 
Q 897 2325 838 1906 
L 2566 1906 
z
" transform="scale(0.015625)"/>
      <path id="SegoeUISymbol-55" d="M 2188 2681 
Q 2053 2784 1800 2784 
Q 1472 2784 1251 2475 
Q 1031 2166 1031 1631 
L 1031 0 
L 519 0 
L 519 3200 
L 1031 3200 
L 1031 2541 
L 1044 2541 
Q 1153 2878 1378 3067 
Q 1603 3256 1881 3256 
Q 2081 3256 2188 3213 
L 2188 2681 
z
" transform="scale(0.015625)"/>
     </defs>
     <use xlink:href="#LastResortHE-Regular-4"/>
     <use xlink:href="#SegoeUISymbol-4e" transform="translate(114.75 0)"/>
     <use xlink:href="#SegoeUISymbol-4c" transform="translate(164.453125 0)"/>
     <use xlink:href="#SegoeUISymbol-5d" transform="translate(188.671875 0)"/>
     <use xlink:href="#SegoeUISymbol-4f" transform="translate(233.890625 0)"/>
     <use xlink:href="#SegoeUISymbol-48" transform="translate(258.109375 0)"/>
     <use xlink:href="#SegoeUISymbol-55" transform="translate(310.40625 0)"/>
    </g>
   </g>
   <g id="text_23">
    <!-- Yengeç -->
    <g style="fill: #6b5b7b" transform="translate(165.915726 87.389468) scale(0.07 -0.07)">
     <defs>
      <path id="SegoeUISymbol-3c" d="M 3500 4481 
L 2022 1656 
L 2022 0 
L 1497 0 
L 1497 1644 
L 56 4481 
L 653 4481 
L 1656 2456 
Q 1675 2419 1766 2181 
L 1775 2181 
Q 1806 2288 1894 2456 
L 2944 4481 
L 3500 4481 
z
" transform="scale(0.015625)"/>
      <path id="SegoeUISymbol-51" d="M 3175 0 
L 2663 0 
L 2663 1825 
Q 2663 2844 1919 2844 
Q 1534 2844 1282 2555 
Q 1031 2266 1031 1825 
L 1031 0 
L 519 0 
L 519 3200 
L 1031 3200 
L 1031 2669 
L 1044 2669 
Q 1406 3275 2094 3275 
Q 2619 3275 2897 2936 
Q 3175 2597 3175 1956 
L 3175 0 
z
" transform="scale(0.015625)"/>
     </defs>
     <use xlink:href="#SegoeUISymbol-3c"/>
     <use xlink:href="#SegoeUISymbol-48" transform="translate(46.5 0)"/>
     <use xlink:href="#SegoeUISymbol-51" transform="translate(98.796875 0)"/>
     <use xlink:href="#SegoeUISymbol-4a" transform="translate(155.390625 0)"/>
     <use xlink:href="#SegoeUISymbol-48" transform="translate(214.28125 0)"/>
     <use xlink:href="#SegoeUISymbol-6f" transform="translate(266.578125 0)"/>
    </g>
   </g>
   <g id="text_24">
    <!-- Aslan -->
    <g style="fill: #6b5b7b" transform="translate(86.49551 134.870949) scale(0.07 -0.07)">
     <defs>
      <path id="SegoeUISymbol-24" d="M 4056 0 
L 3475 0 
L 3000 1256 
L 1100 1256 
L 653 0 
L 69 0 
L 1788 4481 
L 2331 4481 
L 4056 0 
z
M 2828 1728 
L 2125 3638 
Q 2091 3731 2056 3938 
L 2044 3938 
Q 2013 3747 1972 3638 
L 1275 1728 
L 2828 1728 
z
" transform="scale(0.015625)"/>
      <path id="SegoeUISymbol-56" d="M 325 116 
L 325 666 
Q 744 356 1247 356 
Q 1922 356 1922 806 
Q 1922 934 1864 1023 
Q 1806 1113 1707 1181 
Q 1609 1250 1476 1304 
Q 1344 1359 1191 1419 
Q 978 1503 817 1589 
Q 656 1675 548 1783 
Q 441 1891 386 2028 
Q 331 2166 331 2350 
Q 331 2575 434 2748 
Q 538 2922 709 3039 
Q 881 3156 1101 3215 
Q 1322 3275 1556 3275 
Q 1972 3275 2300 3131 
L 2300 2613 
Q 1947 2844 1488 2844 
Q 1344 2844 1228 2811 
Q 1113 2778 1030 2718 
Q 947 2659 901 2576 
Q 856 2494 856 2394 
Q 856 2269 901 2184 
Q 947 2100 1034 2034 
Q 1122 1969 1247 1916 
Q 1372 1863 1531 1800 
Q 1744 1719 1912 1633 
Q 2081 1547 2200 1439 
Q 2319 1331 2383 1190 
Q 2447 1050 2447 856 
Q 2447 619 2342 444 
Q 2238 269 2063 153 
Q 1888 38 1659 -18 
Q 1431 -75 1181 -75 
Q 688 -75 325 116 
z
" transform="scale(0.015625)"/>
     </defs>
     <use xlink:href="#SegoeUISymbol-24"/>
     <use xlink:href="#SegoeUISymbol-56" transform="translate(64.5 0)"/>
     <use xlink:href="#SegoeUISymbol-4f" transform="translate(106.9375 0)"/>
     <use xlink:href="#SegoeUISymbol-44" transform="translate(131.15625 0)"/>
     <use xlink:href="#SegoeUISymbol-51" transform="translate(182.03125 0)"/>
    </g>
   </g>
   <g id="text_25">
    <!-- Başak -->
    <g style="fill: #6b5b7b" transform="translate(36.172329 216.927103) scale(0.07 -0.07)">
     <use xlink:href="#SegoeUISymbol-25"/>
     <use xlink:href="#SegoeUISymbol-44" transform="translate(57.328125 0)"/>
     <use xlink:href="#LastResortHE-Regular-4" transform="translate(108.203125 0)"/>
     <use xlink:href="#SegoeUISymbol-44" transform="translate(222.953125 0)"/>
     <use xlink:href="#SegoeUISymbol-4e" transform="translate(273.828125 0)"/>
    </g>
   </g>
   <g id="text_26">
    <!-- Terazi -->
    <g style="fill: #6b5b7b" transform="translate(38.764516 311.556198) scale(0.07 -0.07)">
     <defs>
      <path id="SegoeUISymbol-37" d="M 3238 4006 
L 1944 4006 
L 1944 0 
L 1419 0 
L 1419 4006 
L 128 4006 
L 128 4481 
L 3238 4481 
L 3238 4006 
z
" transform="scale(0.015625)"/>
     </defs>
     <use xlink:href="#SegoeUISymbol-37"/>
     <use xlink:href="#SegoeUISymbol-48" transform="translate(42.09375 0)"/>
     <use xlink:href="#SegoeUISymbol-55" transform="translate(94.390625 0)"/>
     <use xlink:href="#SegoeUISymbol-44" transform="translate(129.15625 0)"/>
     <use xlink:href="#SegoeUISymbol-5d" transform="translate(180.03125 0)"/>
     <use xlink:href="#SegoeUISymbol-4c" transform="translate(225.25 0)"/>
    </g>
   </g>
   <g id="text_27">
    <!-- Akrep -->
    <g style="fill: #6b5b7b" transform="translate(85.791135 393.535721) scale(0.07 -0.07)">
     <defs>
      <path id="SegoeUISymbol-53" d="M 1044 463 
L 1031 463 
L 1031 -1472 
L 519 -1472 
L 519 3200 
L 1031 3200 
L 1031 2638 
L 1044 2638 
Q 1422 3275 2150 3275 
Q 2769 3275 3116 2845 
Q 3463 2416 3463 1694 
Q 3463 891 3072 408 
Q 2681 -75 2003 -75 
Q 1381 -75 1044 463 
z
M 1031 1753 
L 1031 1306 
Q 1031 909 1289 632 
Q 1547 356 1944 356 
Q 2409 356 2673 712 
Q 2938 1069 2938 1703 
Q 2938 2238 2691 2541 
Q 2444 2844 2022 2844 
Q 1575 2844 1303 2533 
Q 1031 2222 1031 1753 
z
" transform="scale(0.015625)"/>
     </defs>
     <use xlink:href="#SegoeUISymbol-24"/>
     <use xlink:href="#SegoeUISymbol-4e" transform="translate(64.5 0)"/>
     <use xlink:href="#SegoeUISymbol-55" transform="translate(114.203125 0)"/>
     <use xlink:href="#SegoeUISymbol-48" transform="translate(147.65625 0)"/>
     <use xlink:href="#SegoeUISymbol-53" transform="translate(199.953125 0)"/>
    </g>
   </g>
   <g id="text_28">
    <!-- Yay -->
    <g style="fill: #6b5b7b" transform="translate(171.793538 440.825591) scale(0.07 -0.07)">
     <defs>
      <path id="SegoeUISymbol-5c" d="M 3066 3200 
L 1594 -513 
Q 1200 -1506 488 -1506 
Q 288 -1506 153 -1466 
L 153 -1006 
Q 319 -1063 456 -1063 
Q 844 -1063 1038 -600 
L 1294 6 
L 44 3200 
L 613 3200 
L 1478 738 
Q 1494 691 1544 494 
L 1563 494 
Q 1578 569 1625 731 
L 2534 3200 
L 3066 3200 
z
" transform="scale(0.015625)"/>
     </defs>
     <use xlink:href="#SegoeUISymbol-3c"/>
     <use xlink:href="#SegoeUISymbol-44" transform="translate(45.5625 0)"/>
     <use xlink:href="#SegoeUISymbol-5c" transform="translate(96.4375 0)"/>
    </g>
   </g>
   <g id="text_29">
    <!-- Oğlak -->
    <g style="fill: #6b5b7b" transform="translate(262.497712 440.868589) scale(0.07 -0.07)">
     <defs>
      <path id="SegoeUISymbol-32" d="M 2394 -75 
Q 1441 -75 867 553 
Q 294 1181 294 2188 
Q 294 3269 878 3912 
Q 1463 4556 2469 4556 
Q 3397 4556 3964 3931 
Q 4531 3306 4531 2297 
Q 4531 1200 3950 562 
Q 3369 -75 2394 -75 
z
M 2431 4081 
Q 1725 4081 1284 3572 
Q 844 3063 844 2234 
Q 844 1406 1273 901 
Q 1703 397 2394 397 
Q 3131 397 3556 878 
Q 3981 1359 3981 2225 
Q 3981 3113 3568 3597 
Q 3156 4081 2431 4081 
z
" transform="scale(0.015625)"/>
     </defs>
     <use xlink:href="#SegoeUISymbol-32"/>
     <use xlink:href="#SegoeUISymbol-4a" transform="translate(75.390625 0)"/>
     <use xlink:href="#SegoeUISymbol-1baa" transform="translate(134.28125 0)"/>
     <use xlink:href="#SegoeUISymbol-4f" transform="translate(134.28125 0)"/>
     <use xlink:href="#SegoeUISymbol-44" transform="translate(158.5 0)"/>
     <use xlink:href="#SegoeUISymbol-4e" transform="translate(209.375 0)"/>
    </g>
   </g>
   <g id="text_30">
    <!-- Kova -->
    <g style="fill: #6b5b7b" transform="translate(346.151287 393.561151) scale(0.07 -0.07)">
     <defs>
      <path id="SegoeUISymbol-59" d="M 3034 3200 
L 1759 0 
L 1256 0 
L 44 3200 
L 606 3200 
L 1419 875 
Q 1509 619 1531 428 
L 1544 428 
Q 1575 669 1644 863 
L 2494 3200 
L 3034 3200 
z
" transform="scale(0.015625)"/>
     </defs>
     <use xlink:href="#SegoeUISymbol-2e"/>
     <use xlink:href="#SegoeUISymbol-52" transform="translate(56.703125 0)"/>
     <use xlink:href="#SegoeUISymbol-59" transform="translate(115.296875 0)"/>
     <use xlink:href="#SegoeUISymbol-44" transform="translate(161.390625 0)"/>
    </g>
   </g>
   <g id="text_31">
    <!-- Balık -->
    <g style="fill: #6b5b7b" transform="translate(393.710015 311.589011) scale(0.07 -0.07)">
     <defs>
      <path id="SegoeUISymbol-c7" d="M 1031 0 
L 519 0 
L 519 3200 
L 1031 3200 
L 1031 0 
z
" transform="scale(0.015625)"/>
     </defs>
     <use xlink:href="#SegoeUISymbol-25"/>
     <use xlink:href="#SegoeUISymbol-44" transform="translate(57.328125 0)"/>
     <use xlink:href="#SegoeUISymbol-4f" transform="translate(108.203125 0)"/>
     <use xlink:href="#SegoeUISymbol-c7" transform="translate(132.421875 0)"/>
     <use xlink:href="#SegoeUISymbol-4e" transform="translate(156.640625 0)"/>
    </g>
   </g>
   <g id="text_32">
    <!-- Güneş -->
    <g style="fill: #4a4a4a" transform="translate(293.767421 142.748679) scale(0.065 -0.065)">
     <defs>
      <path id="SegoeUISymbol-2a" d="M 3938 306 
Q 3263 -75 2438 -75 
Q 1478 -75 886 544 
Q 294 1163 294 2181 
Q 294 3222 951 3889 
Q 1609 4556 2619 4556 
Q 3350 4556 3847 4319 
L 3847 3738 
Q 3303 4081 2559 4081 
Q 1806 4081 1325 3562 
Q 844 3044 844 2219 
Q 844 1369 1291 883 
Q 1738 397 2503 397 
Q 3028 397 3413 606 
L 3413 1863 
L 2431 1863 
L 2431 2338 
L 3938 2338 
L 3938 306 
z
" transform="scale(0.015625)"/>
      <path id="SegoeUISymbol-81" d="M 3106 0 
L 2594 0 
L 2594 506 
L 2581 506 
Q 2263 -75 1594 -75 
Q 450 -75 450 1288 
L 450 3200 
L 959 3200 
L 959 1369 
Q 959 356 1734 356 
Q 2109 356 2351 632 
Q 2594 909 2594 1356 
L 2594 3200 
L 3106 3200 
L 3106 0 
z
M 2406 3806 
Q 2281 3806 2190 3893 
Q 2100 3981 2100 4116 
Q 2100 4247 2187 4334 
Q 2275 4422 2400 4422 
Q 2531 4422 2622 4333 
Q 2713 4244 2713 4116 
Q 2713 3988 2625 3897 
Q 2538 3806 2406 3806 
z
M 1206 3806 
Q 1075 3806 983 3898 
Q 891 3991 891 4116 
Q 891 4247 980 4334 
Q 1069 4422 1197 4422 
Q 1325 4422 1419 4333 
Q 1513 4244 1513 4116 
Q 1513 3988 1422 3897 
Q 1331 3806 1206 3806 
z
" transform="scale(0.015625)"/>
     </defs>
     <use xlink:href="#SegoeUISymbol-2a"/>
     <use xlink:href="#SegoeUISymbol-81" transform="translate(68.609375 0)"/>
     <use xlink:href="#SegoeUISymbol-51" transform="translate(125.203125 0)"/>
     <use xlink:href="#SegoeUISymbol-48" transform="translate(181.796875 0)"/>
     <use xlink:href="#LastResortHE-Regular-4" transform="translate(234.09375 0)"/>
    </g>
   </g>
   <g id="text_33">
    <!-- Ay -->
    <g style="fill: #4a4a4a" transform="translate(274.651475 411.7193) scale(0.065 -0.065)">
     <use xlink:href="#SegoeUISymbol-24"/>
     <use xlink:href="#SegoeUISymbol-5c" transform="translate(62.6875 0)"/>
    </g>
   </g>
   <g id="text_34">
    <!-- Merkür -->
    <g style="fill: #4a4a4a" transform="translate(280.345981 125.74117) scale(0.065 -0.065)">
     <defs>
      <path id="SegoeUISymbol-30" d="M 5156 0 
L 4634 0 
L 4634 3006 
Q 4634 3363 4678 3878 
L 4666 3878 
Q 4591 3575 4531 3444 
L 3000 0 
L 2744 0 
L 1216 3419 
Q 1150 3569 1081 3878 
L 1069 3878 
Q 1094 3609 1094 3000 
L 1094 0 
L 588 0 
L 588 4481 
L 1281 4481 
L 2656 1356 
Q 2816 997 2863 819 
L 2881 819 
Q 3016 1188 3097 1369 
L 4500 4481 
L 5156 4481 
L 5156 0 
z
" transform="scale(0.015625)"/>
     </defs>
     <use xlink:href="#SegoeUISymbol-30"/>
     <use xlink:href="#SegoeUISymbol-48" transform="translate(89.796875 0)"/>
     <use xlink:href="#SegoeUISymbol-55" transform="translate(142.09375 0)"/>
     <use xlink:href="#SegoeUISymbol-4e" transform="translate(176.859375 0)"/>
     <use xlink:href="#SegoeUISymbol-81" transform="translate(226.5625 0)"/>
     <use xlink:href="#SegoeUISymbol-55" transform="translate(283.15625 0)"/>
    </g>
   </g>
   <g id="text_35">
    <!-- Venüs -->
    <g style="fill: #4a4a4a" transform="translate(332.563075 170.598029) scale(0.065 -0.065)">
     <defs>
      <path id="SegoeUISymbol-39" d="M 3919 4481 
L 2259 0 
L 1681 0 
L 56 4481 
L 641 4481 
L 1881 928 
Q 1941 756 1972 531 
L 1984 531 
Q 2009 719 2088 934 
L 3353 4481 
L 3919 4481 
z
" transform="scale(0.015625)"/>
     </defs>
     <use xlink:href="#SegoeUISymbol-39"/>
     <use xlink:href="#SegoeUISymbol-48" transform="translate(55.8125 0)"/>
     <use xlink:href="#SegoeUISymbol-51" transform="translate(108.109375 0)"/>
     <use xlink:href="#SegoeUISymbol-81" transform="translate(164.703125 0)"/>
     <use xlink:href="#SegoeUISymbol-56" transform="translate(221.296875 0)"/>
    </g>
   </g>
   <g id="text_36">
    <!-- Mars -->
    <g style="fill: #4a4a4a" transform="translate(366.786215 265.998658) scale(0.065 -0.065)">
     <use xlink:href="#SegoeUISymbol-30"/>
     <use xlink:href="#SegoeUISymbol-44" transform="translate(89.796875 0)"/>
     <use xlink:href="#SegoeUISymbol-55" transform="translate(140.671875 0)"/>
     <use xlink:href="#SegoeUISymbol-56" transform="translate(176.125 0)"/>
    </g>
   </g>
   <g id="text_37">
    <!-- Jüpiter -->
    <g style="fill: #4a4a4a" transform="translate(124.145217 144.753394) scale(0.065 -0.065)">
     <defs>
      <path id="SegoeUISymbol-2d" d="M 1734 1606 
Q 1734 809 1396 367 
Q 1059 -75 494 -75 
Q 231 -75 63 0 
L 63 519 
Q 231 397 500 397 
Q 1209 397 1209 1600 
L 1209 4481 
L 1734 4481 
L 1734 1606 
z
" transform="scale(0.015625)"/>
      <path id="SegoeUISymbol-57" d="M 2003 31 
Q 1822 -69 1525 -69 
Q 684 -69 684 869 
L 684 2763 
L 134 2763 
L 134 3200 
L 684 3200 
L 684 3981 
L 1197 4147 
L 1197 3200 
L 2003 3200 
L 2003 2763 
L 1197 2763 
L 1197 959 
Q 1197 638 1306 500 
Q 1416 363 1669 363 
Q 1863 363 2003 469 
L 2003 31 
z
" transform="scale(0.015625)"/>
     </defs>
     <use xlink:href="#SegoeUISymbol-2d"/>
     <use xlink:href="#SegoeUISymbol-81" transform="translate(35.6875 0)"/>
     <use xlink:href="#SegoeUISymbol-53" transform="translate(92.28125 0)"/>
     <use xlink:href="#SegoeUISymbol-4c" transform="translate(151.078125 0)"/>
     <use xlink:href="#SegoeUISymbol-57" transform="translate(175.296875 0)"/>
     <use xlink:href="#SegoeUISymbol-48" transform="translate(208.40625 0)"/>
     <use xlink:href="#SegoeUISymbol-55" transform="translate(260.703125 0)"/>
    </g>
   </g>
   <g id="text_38">
    <!-- Satürn -->
    <g style="fill: #4a4a4a" transform="translate(300.548649 386.849402) scale(0.065 -0.065)">
     <defs>
      <path id="SegoeUISymbol-36" d="M 378 181 
L 378 800 
Q 484 706 632 631 
Q 781 556 945 504 
Q 1109 453 1275 425 
Q 1441 397 1581 397 
Q 2066 397 2305 576 
Q 2544 756 2544 1094 
Q 2544 1275 2464 1409 
Q 2384 1544 2243 1655 
Q 2103 1766 1911 1867 
Q 1719 1969 1497 2081 
Q 1263 2200 1059 2322 
Q 856 2444 706 2591 
Q 556 2738 470 2923 
Q 384 3109 384 3359 
Q 384 3666 518 3892 
Q 653 4119 872 4266 
Q 1091 4413 1370 4484 
Q 1650 4556 1941 4556 
Q 2603 4556 2906 4397 
L 2906 3806 
Q 2509 4081 1888 4081 
Q 1716 4081 1544 4045 
Q 1372 4009 1237 3928 
Q 1103 3847 1018 3719 
Q 934 3591 934 3406 
Q 934 3234 998 3109 
Q 1063 2984 1188 2881 
Q 1313 2778 1492 2681 
Q 1672 2584 1906 2469 
Q 2147 2350 2362 2219 
Q 2578 2088 2740 1928 
Q 2903 1769 2998 1575 
Q 3094 1381 3094 1131 
Q 3094 800 2964 570 
Q 2834 341 2614 197 
Q 2394 53 2106 -11 
Q 1819 -75 1500 -75 
Q 1394 -75 1237 -58 
Q 1081 -41 918 -8 
Q 756 25 611 73 
Q 466 122 378 181 
z
" transform="scale(0.015625)"/>
     </defs>
     <use xlink:href="#SegoeUISymbol-36"/>
     <use xlink:href="#SegoeUISymbol-44" transform="translate(53.125 0)"/>
     <use xlink:href="#SegoeUISymbol-57" transform="translate(104 0)"/>
     <use xlink:href="#SegoeUISymbol-81" transform="translate(137.890625 0)"/>
     <use xlink:href="#SegoeUISymbol-55" transform="translate(194.484375 0)"/>
     <use xlink:href="#SegoeUISymbol-51" transform="translate(229.0625 0)"/>
    </g>
   </g>
   <g id="text_39">
    <!-- Uranüs -->
    <g style="fill: #4a4a4a" transform="translate(244.585347 402.829507) scale(0.065 -0.065)">
     <defs>
      <path id="SegoeUISymbol-38" d="M 3866 1813 
Q 3866 -75 2163 -75 
Q 531 -75 531 1741 
L 531 4481 
L 1056 4481 
L 1056 1775 
Q 1056 397 2219 397 
Q 3341 397 3341 1728 
L 3341 4481 
L 3866 4481 
L 3866 1813 
z
" transform="scale(0.015625)"/>
     </defs>
     <use xlink:href="#SegoeUISymbol-38"/>
     <use xlink:href="#SegoeUISymbol-55" transform="translate(68.703125 0)"/>
     <use xlink:href="#SegoeUISymbol-44" transform="translate(103.46875 0)"/>
     <use xlink:href="#SegoeUISymbol-51" transform="translate(154.34375 0)"/>
     <use xlink:href="#SegoeUISymbol-81" transform="translate(210.9375 0)"/>
     <use xlink:href="#SegoeUISymbol-56" transform="translate(267.53125 0)"/>
    </g>
   </g>
   <g id="text_40">
    <!-- Neptün -->
    <g style="fill: #4a4a4a" transform="translate(254.113583 408.044143) scale(0.065 -0.065)">
     <defs>
      <path id="SegoeUISymbol-31" d="M 4200 0 
L 3556 0 
L 1250 3572 
Q 1163 3706 1106 3853 
L 1088 3853 
Q 1113 3709 1113 3238 
L 1113 0 
L 588 0 
L 588 4481 
L 1269 4481 
L 3513 966 
Q 3653 747 3694 666 
L 3706 666 
Q 3675 859 3675 1325 
L 3675 4481 
L 4200 4481 
L 4200 0 
z
" transform="scale(0.015625)"/>
     </defs>
     <use xlink:href="#SegoeUISymbol-31"/>
     <use xlink:href="#SegoeUISymbol-48" transform="translate(74.8125 0)"/>
     <use xlink:href="#SegoeUISymbol-53" transform="translate(127.109375 0)"/>
     <use xlink:href="#SegoeUISymbol-57" transform="translate(185.90625 0)"/>
     <use xlink:href="#SegoeUISymbol-81" transform="translate(219.796875 0)"/>
     <use xlink:href="#SegoeUISymbol-51" transform="translate(276.390625 0)"/>
    </g>
   </g>
   <g id="text_41">
    <!-- Plüton -->
    <g style="fill: #4a4a4a" transform="translate(116.542702 376.900954) scale(0.065 -0.065)">
     <defs>
      <path id="SegoeUISymbol-33" d="M 1113 1694 
L 1113 0 
L 588 0 
L 588 4481 
L 1819 4481 
Q 2538 4481 2933 4131 
Q 3328 3781 3328 3144 
Q 3328 2506 2889 2100 
Q 2450 1694 1703 1694 
L 1113 1694 
z
M 1113 4006 
L 1113 2169 
L 1663 2169 
Q 2206 2169 2492 2417 
Q 2778 2666 2778 3119 
Q 2778 4006 1728 4006 
L 1113 4006 
z
" transform="scale(0.015625)"/>
     </defs>
     <use xlink:href="#SegoeUISymbol-33"/>
     <use xlink:href="#SegoeUISymbol-4f" transform="translate(56 0)"/>
     <use xlink:href="#SegoeUISymbol-81" transform="translate(80.21875 0)"/>
     <use xlink:href="#SegoeUISymbol-57" transform="translate(136.8125 0)"/>
     <use xlink:href="#SegoeUISymbol-52" transform="translate(169.921875 0)"/>
     <use xlink:href="#SegoeUISymbol-51" transform="translate(228.515625 0)"/>
    </g>
   </g>
   <g id="text_42">
    <!-- ASC -->
    <g style="fill: #c9a96e" transform="translate(58.963384 248.75423) scale(0.07 -0.07)">
     <defs>
      <path id="SegoeUISymbol-26" d="M 3638 188 
Q 3141 -75 2400 -75 
Q 1444 -75 869 540 
Q 294 1156 294 2156 
Q 294 3231 941 3893 
Q 1588 4556 2581 4556 
Q 3219 4556 3638 4372 
L 3638 3813 
Q 3156 4081 2575 4081 
Q 1803 4081 1323 3565 
Q 844 3050 844 2188 
Q 844 1369 1292 883 
Q 1741 397 2469 397 
Q 3144 397 3638 697 
L 3638 188 
z
" transform="scale(0.015625)"/>
     </defs>
     <use xlink:href="#SegoeUISymbol-24"/>
     <use xlink:href="#SegoeUISymbol-36" transform="translate(64.5 0)"/>
     <use xlink:href="#SegoeUISymbol-26" transform="translate(117.625 0)"/>
    </g>
    <!-- (Başak) -->
    <g style="fill: #c9a96e" transform="translate(51.8119 256.411027) scale(0.07 -0.07)">
     <defs>
      <path id="SegoeUISymbol-b" d="M 1863 -1019 
L 1406 -1019 
Q 438 88 438 1709 
Q 438 3338 1406 4481 
L 1869 4481 
Q 888 3294 888 1716 
Q 888 150 1863 -1019 
z
" transform="scale(0.015625)"/>
      <path id="SegoeUISymbol-c" d="M 531 -1019 
L 75 -1019 
Q 1050 150 1050 1716 
Q 1050 3294 69 4481 
L 531 4481 
Q 1506 3338 1506 1709 
Q 1506 88 531 -1019 
z
" transform="scale(0.015625)"/>
     </defs>
     <use xlink:href="#SegoeUISymbol-b"/>
     <use xlink:href="#SegoeUISymbol-25" transform="translate(30.171875 0)"/>
     <use xlink:href="#SegoeUISymbol-44" transform="translate(87.5 0)"/>
     <use xlink:href="#LastResortHE-Regular-4" transform="translate(138.375 0)"/>
     <use xlink:href="#SegoeUISymbol-44" transform="translate(253.125 0)"/>
     <use xlink:href="#SegoeUISymbol-4e" transform="translate(304 0)"/>
     <use xlink:href="#SegoeUISymbol-c" transform="translate(353.703125 0)"/>
    </g>
   </g>
   <g id="text_43">
    <!-- Composite Harita -->
    <g style="fill: #3d2e50" transform="translate(178.066484 16.759336) scale(0.12 -0.12)">
     <defs>
      <path id="SegoeUISymbol-50" d="M 5063 0 
L 4550 0 
L 4550 1838 
Q 4550 2369 4386 2606 
Q 4222 2844 3834 2844 
Q 3506 2844 3276 2544 
Q 3047 2244 3047 1825 
L 3047 0 
L 2534 0 
L 2534 1900 
Q 2534 2844 1806 2844 
Q 1469 2844 1250 2561 
Q 1031 2278 1031 1825 
L 1031 0 
L 519 0 
L 519 3200 
L 1031 3200 
L 1031 2694 
L 1044 2694 
Q 1384 3275 2038 3275 
Q 2366 3275 2609 3092 
Q 2853 2909 2944 2613 
Q 3300 3275 4006 3275 
Q 5063 3275 5063 1972 
L 5063 0 
z
" transform="scale(0.015625)"/>
      <path id="SegoeUISymbol-3" transform="scale(0.015625)"/>
      <path id="SegoeUISymbol-2b" d="M 3956 0 
L 3431 0 
L 3431 2044 
L 1113 2044 
L 1113 0 
L 588 0 
L 588 4481 
L 1113 4481 
L 1113 2516 
L 3431 2516 
L 3431 4481 
L 3956 4481 
L 3956 0 
z
" transform="scale(0.015625)"/>
     </defs>
     <use xlink:href="#SegoeUISymbol-26"/>
     <use xlink:href="#SegoeUISymbol-52" transform="translate(61.921875 0)"/>
     <use xlink:href="#SegoeUISymbol-50" transform="translate(120.515625 0)"/>
     <use xlink:href="#SegoeUISymbol-53" transform="translate(206.65625 0)"/>
     <use xlink:href="#SegoeUISymbol-52" transform="translate(265.453125 0)"/>
     <use xlink:href="#SegoeUISymbol-56" transform="translate(324.046875 0)"/>
     <use xlink:href="#SegoeUISymbol-4c" transform="translate(366.484375 0)"/>
     <use xlink:href="#SegoeUISymbol-57" transform="translate(390.703125 0)"/>
     <use xlink:href="#SegoeUISymbol-48" transform="translate(423.8125 0)"/>
     <use xlink:href="#SegoeUISymbol-3" transform="translate(476.109375 0)"/>
     <use xlink:href="#SegoeUISymbol-2b" transform="translate(503.5 0)"/>
     <use xlink:href="#SegoeUISymbol-44" transform="translate(574.5 0)"/>
     <use xlink:href="#SegoeUISymbol-55" transform="translate(625.375 0)"/>
     <use xlink:href="#SegoeUISymbol-4c" transform="translate(660.140625 0)"/>
     <use xlink:href="#SegoeUISymbol-57" transform="translate(684.359375 0)"/>
     <use xlink:href="#SegoeUISymbol-44" transform="translate(718.25 0)"/>
    </g>
    <!-- (İlişkinin Ortak Ruh Haritası) -->
    <g style="fill: #3d2e50" transform="translate(141.140234 30.119883) scale(0.12 -0.12)">
     <defs>
      <path id="SegoeUISymbol-35" d="M 3800 0 
L 3175 0 
L 2425 1256 
Q 2322 1431 2225 1554 
Q 2128 1678 2026 1756 
Q 1925 1834 1808 1870 
Q 1691 1906 1544 1906 
L 1113 1906 
L 1113 0 
L 588 0 
L 588 4481 
L 1925 4481 
Q 2219 4481 2467 4407 
Q 2716 4334 2898 4184 
Q 3081 4034 3184 3811 
Q 3288 3588 3288 3288 
Q 3288 3053 3217 2858 
Q 3147 2663 3017 2509 
Q 2888 2356 2705 2248 
Q 2522 2141 2294 2081 
L 2294 2069 
Q 2406 2019 2489 1955 
Q 2572 1891 2647 1803 
Q 2722 1716 2795 1605 
Q 2869 1494 2959 1347 
L 3800 0 
z
M 1113 4006 
L 1113 2381 
L 1825 2381 
Q 2022 2381 2189 2440 
Q 2356 2500 2478 2611 
Q 2600 2722 2669 2883 
Q 2738 3044 2738 3244 
Q 2738 3603 2505 3804 
Q 2272 4006 1831 4006 
L 1113 4006 
z
" transform="scale(0.015625)"/>
      <path id="SegoeUISymbol-58" d="M 3106 0 
L 2594 0 
L 2594 506 
L 2581 506 
Q 2263 -75 1594 -75 
Q 450 -75 450 1288 
L 450 3200 
L 959 3200 
L 959 1369 
Q 959 356 1734 356 
Q 2109 356 2351 632 
Q 2594 909 2594 1356 
L 2594 3200 
L 3106 3200 
L 3106 0 
z
" transform="scale(0.015625)"/>
      <path id="SegoeUISymbol-4b" d="M 3175 0 
L 2663 0 
L 2663 1844 
Q 2663 2844 1919 2844 
Q 1544 2844 1287 2555 
Q 1031 2266 1031 1813 
L 1031 0 
L 519 0 
L 519 4738 
L 1031 4738 
L 1031 2669 
L 1044 2669 
Q 1413 3275 2094 3275 
Q 3175 3275 3175 1972 
L 3175 0 
z
" transform="scale(0.015625)"/>
     </defs>
     <use xlink:href="#SegoeUISymbol-b"/>
     <use xlink:href="#LastResortHE-Regular-4" transform="translate(30.171875 0)"/>
     <use xlink:href="#SegoeUISymbol-4f" transform="translate(144.921875 0)"/>
     <use xlink:href="#SegoeUISymbol-4c" transform="translate(169.140625 0)"/>
     <use xlink:href="#LastResortHE-Regular-4" transform="translate(193.359375 0)"/>
     <use xlink:href="#SegoeUISymbol-4e" transform="translate(308.109375 0)"/>
     <use xlink:href="#SegoeUISymbol-4c" transform="translate(357.8125 0)"/>
     <use xlink:href="#SegoeUISymbol-51" transform="translate(382.03125 0)"/>
     <use xlink:href="#SegoeUISymbol-4c" transform="translate(438.625 0)"/>
     <use xlink:href="#SegoeUISymbol-51" transform="translate(462.84375 0)"/>
     <use xlink:href="#SegoeUISymbol-3" transform="translate(519.4375 0)"/>
     <use xlink:href="#SegoeUISymbol-32" transform="translate(546.828125 0)"/>
     <use xlink:href="#SegoeUISymbol-55" transform="translate(622.21875 0)"/>
     <use xlink:href="#SegoeUISymbol-57" transform="translate(659.859375 0)"/>
     <use xlink:href="#SegoeUISymbol-44" transform="translate(693.75 0)"/>
     <use xlink:href="#SegoeUISymbol-4e" transform="translate(744.625 0)"/>
     <use xlink:href="#SegoeUISymbol-3" transform="translate(794.328125 0)"/>
     <use xlink:href="#SegoeUISymbol-35" transform="translate(821.71875 0)"/>
     <use xlink:href="#SegoeUISymbol-58" transform="translate(881.53125 0)"/>
     <use xlink:href="#SegoeUISymbol-4b" transform="translate(938.125 0)"/>
     <use xlink:href="#SegoeUISymbol-3" transform="translate(994.71875 0)"/>
     <use xlink:href="#SegoeUISymbol-2b" transform="translate(1022.109375 0)"/>
     <use xlink:href="#SegoeUISymbol-44" transform="translate(1093.109375 0)"/>
     <use xlink:href="#SegoeUISymbol-55" transform="translate(1143.984375 0)"/>
     <use xlink:href="#SegoeUISymbol-4c" transform="translate(1178.75 0)"/>
     <use xlink:href="#SegoeUISymbol-57" transform="translate(1202.96875 0)"/>
     <use xlink:href="#SegoeUISymbol-44" transform="translate(1236.859375 0)"/>
     <use xlink:href="#SegoeUISymbol-56" transform="translate(1287.734375 0)"/>
     <use xlink:href="#SegoeUISymbol-c7" transform="translate(1330.171875 0)"/>
     <use xlink:href="#SegoeUISymbol-c" transform="translate(1354.390625 0)"/>
    </g>
   </g>
   <g id="text_44">
    <!-- ☉ -->
    <g style="fill: #c9a96e" transform="translate(286.065395 163.583431) scale(0.16 -0.16)">
     <defs>
      <path id="SegoeUISymbol-578" d="M 4675 2288 
Q 4675 1878 4519 1522 
Q 4363 1166 4094 903 
Q 3825 641 3465 489 
Q 3106 338 2697 338 
Q 2288 338 1928 489 
Q 1569 641 1300 903 
Q 1031 1166 875 1522 
Q 719 1878 719 2288 
Q 719 2697 875 3051 
Q 1031 3406 1300 3668 
Q 1569 3931 1928 4082 
Q 2288 4234 2697 4234 
Q 3106 4234 3465 4082 
Q 3825 3931 4094 3668 
Q 4363 3406 4519 3051 
Q 4675 2697 4675 2288 
z
M 4206 2288 
Q 4206 2609 4092 2889 
Q 3978 3169 3775 3375 
Q 3572 3581 3295 3700 
Q 3019 3819 2697 3819 
Q 2372 3819 2097 3700 
Q 1822 3581 1619 3375 
Q 1416 3169 1302 2889 
Q 1188 2609 1188 2288 
Q 1188 1963 1302 1683 
Q 1416 1403 1619 1197 
Q 1822 991 2097 872 
Q 2372 753 2697 753 
Q 3019 753 3295 872 
Q 3572 991 3775 1197 
Q 3978 1403 4092 1683 
Q 4206 1963 4206 2288 
z
M 2697 1938 
Q 2625 1938 2562 1966 
Q 2500 1994 2453 2041 
Q 2406 2088 2378 2152 
Q 2350 2216 2350 2288 
Q 2350 2359 2378 2423 
Q 2406 2488 2453 2536 
Q 2500 2584 2562 2612 
Q 2625 2641 2697 2641 
Q 2769 2641 2833 2612 
Q 2897 2584 2945 2536 
Q 2994 2488 3022 2423 
Q 3050 2359 3050 2288 
Q 3050 2216 3022 2152 
Q 2994 2088 2945 2041 
Q 2897 1994 2833 1966 
Q 2769 1938 2697 1938 
z
" transform="scale(0.015625)"/>
     </defs>
     <use xlink:href="#SegoeUISymbol-578"/>
    </g>
   </g>
   <g id="text_45">
    <!-- ☽ -->
    <g style="fill: #8a7f96" transform="translate(266.076229 393.432529) scale(0.16 -0.16)">
     <defs>
      <path id="SegoeUISymbol-5ac" d="M 328 225 
Q 819 225 1186 389 
Q 1553 553 1797 831 
Q 2041 1109 2162 1473 
Q 2284 1838 2284 2238 
Q 2284 2641 2162 3006 
Q 2041 3372 1797 3650 
Q 1553 3928 1186 4092 
Q 819 4256 328 4256 
L 328 4475 
Q 469 4513 636 4536 
Q 803 4559 1009 4559 
Q 1347 4559 1651 4481 
Q 1956 4403 2218 4259 
Q 2481 4116 2690 3909 
Q 2900 3703 3050 3445 
Q 3200 3188 3279 2883 
Q 3359 2578 3359 2238 
Q 3359 1725 3182 1300 
Q 3006 875 2692 569 
Q 2378 263 1947 92 
Q 1516 -78 1009 -78 
Q 803 -78 636 -54 
Q 469 -31 328 6 
L 328 225 
z
M 1016 4359 
Q 1391 4275 1675 4070 
Q 1959 3866 2150 3581 
Q 2341 3297 2437 2951 
Q 2534 2606 2534 2238 
Q 2534 1872 2437 1526 
Q 2341 1181 2150 898 
Q 1959 616 1675 411 
Q 1391 206 1016 122 
Q 1356 122 1645 208 
Q 1934 294 2167 444 
Q 2400 594 2576 798 
Q 2753 1003 2872 1237 
Q 2991 1472 3052 1728 
Q 3113 1984 3113 2238 
Q 3113 2494 3052 2750 
Q 2991 3006 2872 3242 
Q 2753 3478 2576 3681 
Q 2400 3884 2167 4036 
Q 1934 4188 1645 4273 
Q 1356 4359 1016 4359 
z
" transform="scale(0.015625)"/>
     </defs>
     <use xlink:href="#SegoeUISymbol-5ac"/>
    </g>
   </g>
   <g id="text_46">
    <!-- ☿ -->
    <g style="fill: #8fb8ca" transform="translate(276.670103 148.149108) scale(0.16 -0.16)">
     <defs>
      <path id="SegoeUISymbol-5ae" d="M 731 4481 
Q 731 4256 811 4065 
Q 891 3875 1030 3734 
Q 1169 3594 1356 3516 
Q 1544 3438 1759 3438 
Q 1975 3438 2164 3516 
Q 2353 3594 2492 3734 
Q 2631 3875 2712 4065 
Q 2794 4256 2794 4481 
L 3231 4481 
Q 3231 4284 3176 4100 
Q 3122 3916 3025 3755 
Q 2928 3594 2792 3462 
Q 2656 3331 2494 3238 
Q 2656 3144 2792 3011 
Q 2928 2878 3025 2718 
Q 3122 2559 3176 2375 
Q 3231 2191 3231 1994 
Q 3231 1722 3132 1480 
Q 3034 1238 2864 1047 
Q 2694 856 2466 729 
Q 2238 603 1975 566 
L 1975 -3 
L 2672 -3 
L 2672 -422 
L 1975 -422 
L 1975 -1119 
L 1559 -1119 
L 1559 -422 
L 859 -422 
L 859 -3 
L 1559 -3 
L 1559 563 
Q 1297 600 1065 726 
Q 834 853 662 1043 
Q 491 1234 392 1478 
Q 294 1722 294 1994 
Q 294 2191 347 2375 
Q 400 2559 495 2718 
Q 591 2878 725 3011 
Q 859 3144 1022 3238 
Q 859 3331 725 3462 
Q 591 3594 495 3755 
Q 400 3916 347 4100 
Q 294 4284 294 4481 
L 731 4481 
z
M 731 1994 
Q 731 1769 811 1578 
Q 891 1388 1030 1247 
Q 1169 1106 1356 1028 
Q 1544 950 1759 950 
Q 1975 950 2164 1028 
Q 2353 1106 2492 1247 
Q 2631 1388 2712 1578 
Q 2794 1769 2794 1994 
Q 2794 2219 2712 2409 
Q 2631 2600 2492 2740 
Q 2353 2881 2164 2959 
Q 1975 3038 1759 3038 
Q 1544 3038 1356 2959 
Q 1169 2881 1030 2740 
Q 891 2600 811 2409 
Q 731 2219 731 1994 
z
" transform="scale(0.015625)"/>
     </defs>
     <use xlink:href="#SegoeUISymbol-5ae"/>
    </g>
   </g>
   <g id="text_47">
    <!-- ♀ -->
    <g style="fill: #d4878f" transform="translate(319.406643 186.903507) scale(0.16 -0.16)">
     <defs>
      <path id="SegoeUISymbol-5af" d="M 2672 697 
L 1975 697 
L 1975 0 
L 1559 0 
L 1559 697 
L 859 697 
L 859 1116 
L 1559 1116 
L 1559 1681 
Q 1297 1719 1065 1845 
Q 834 1972 662 2162 
Q 491 2353 392 2597 
Q 294 2841 294 3113 
Q 294 3409 411 3671 
Q 528 3934 728 4131 
Q 928 4328 1195 4442 
Q 1463 4556 1759 4556 
Q 2056 4556 2323 4442 
Q 2591 4328 2792 4131 
Q 2994 3934 3112 3671 
Q 3231 3409 3231 3113 
Q 3231 2841 3132 2598 
Q 3034 2356 2864 2165 
Q 2694 1975 2466 1848 
Q 2238 1722 1975 1684 
L 1975 1116 
L 2672 1116 
L 2672 697 
z
M 731 3113 
Q 731 2888 811 2697 
Q 891 2506 1030 2365 
Q 1169 2225 1356 2147 
Q 1544 2069 1759 2069 
Q 1975 2069 2164 2147 
Q 2353 2225 2492 2365 
Q 2631 2506 2712 2697 
Q 2794 2888 2794 3113 
Q 2794 3338 2712 3528 
Q 2631 3719 2492 3859 
Q 2353 4000 2164 4078 
Q 1975 4156 1759 4156 
Q 1544 4156 1356 4078 
Q 1169 4000 1030 3859 
Q 891 3719 811 3528 
Q 731 3338 731 3113 
z
" transform="scale(0.015625)"/>
     </defs>
     <use xlink:href="#SegoeUISymbol-5af"/>
    </g>
   </g>
   <g id="text_48">
    <!-- ♂ -->
    <g style="fill: #c47a82" transform="translate(346.164097 268.17071) scale(0.16 -0.16)">
     <defs>
      <path id="SegoeUISymbol-5b1" d="M 294 1369 
Q 294 1666 411 1928 
Q 528 2191 728 2387 
Q 928 2584 1195 2698 
Q 1463 2813 1759 2813 
Q 1994 2813 2208 2742 
Q 2422 2672 2606 2544 
L 3528 3466 
L 2997 3459 
L 2672 3784 
L 4109 3759 
L 4119 3750 
L 4147 2313 
L 3822 2638 
L 3825 3175 
L 2909 2259 
Q 3059 2072 3145 1847 
Q 3231 1622 3231 1369 
Q 3231 1072 3112 809 
Q 2994 547 2792 350 
Q 2591 153 2323 39 
Q 2056 -75 1759 -75 
Q 1463 -75 1195 39 
Q 928 153 728 350 
Q 528 547 411 809 
Q 294 1072 294 1369 
z
M 731 1369 
Q 731 1144 811 953 
Q 891 763 1030 622 
Q 1169 481 1356 403 
Q 1544 325 1759 325 
Q 1975 325 2164 403 
Q 2353 481 2492 622 
Q 2631 763 2712 953 
Q 2794 1144 2794 1369 
Q 2794 1594 2712 1784 
Q 2631 1975 2492 2115 
Q 2353 2256 2164 2334 
Q 1975 2413 1759 2413 
Q 1544 2413 1356 2334 
Q 1169 2256 1030 2115 
Q 891 1975 811 1784 
Q 731 1594 731 1369 
z
" transform="scale(0.015625)"/>
     </defs>
     <use xlink:href="#SegoeUISymbol-5b1"/>
    </g>
   </g>
   <g id="text_49">
    <!-- ♃ -->
    <g style="fill: #c9a96e" transform="translate(140.997827 164.933777) scale(0.16 -0.16)">
     <defs>
      <path id="SegoeUISymbol-5b2" d="M 294 1453 
L 1541 1453 
Q 1750 1453 1922 1526 
Q 2094 1600 2216 1725 
Q 2338 1850 2405 2014 
Q 2472 2178 2472 2359 
Q 2472 2541 2412 2694 
Q 2353 2847 2245 2959 
Q 2138 3072 1986 3136 
Q 1834 3200 1647 3200 
Q 1269 3200 1055 2978 
Q 841 2756 816 2347 
L 300 2347 
Q 300 2597 390 2837 
Q 481 3078 653 3265 
Q 825 3453 1076 3567 
Q 1328 3681 1650 3681 
Q 1972 3681 2225 3576 
Q 2478 3472 2651 3297 
Q 2825 3122 2915 2892 
Q 3006 2663 3006 2413 
Q 3006 2100 2900 1858 
Q 2794 1616 2591 1453 
L 3822 1453 
L 3822 4481 
L 4334 4481 
L 4334 0 
L 3822 0 
L 3822 978 
L 294 978 
L 294 1453 
z
" transform="scale(0.015625)"/>
     </defs>
     <use xlink:href="#SegoeUISymbol-5b2"/>
    </g>
   </g>
   <g id="text_50">
    <!-- ♄ -->
    <g style="fill: #6b5b7b" transform="translate(292.867006 371.215921) scale(0.16 -0.16)">
     <defs>
      <path id="SegoeUISymbol-5b3" d="M 1050 3756 
L 1050 2669 
L 1063 2669 
Q 1263 2972 1516 3125 
Q 1769 3278 2113 3278 
Q 2381 3278 2573 3176 
Q 2766 3075 2887 2911 
Q 3009 2747 3067 2539 
Q 3125 2331 3125 2119 
Q 3125 1941 3094 1800 
Q 3063 1659 3016 1539 
Q 2969 1419 2912 1311 
Q 2856 1203 2809 1093 
Q 2763 984 2731 865 
Q 2700 747 2700 600 
Q 2700 444 2731 300 
Q 2763 156 2825 0 
L 2288 0 
Q 2234 141 2207 292 
Q 2181 444 2181 638 
Q 2181 803 2212 940 
Q 2244 1078 2292 1197 
Q 2341 1316 2397 1423 
Q 2453 1531 2501 1637 
Q 2550 1744 2581 1856 
Q 2613 1969 2613 2097 
Q 2613 2263 2577 2398 
Q 2541 2534 2461 2632 
Q 2381 2731 2251 2786 
Q 2122 2841 1938 2841 
Q 1744 2841 1580 2755 
Q 1416 2669 1298 2525 
Q 1181 2381 1115 2197 
Q 1050 2013 1050 1813 
L 1050 0 
L 538 0 
L 538 3756 
L 122 3756 
L 122 4172 
L 538 4172 
L 538 4738 
L 1050 4738 
L 1050 4172 
L 2094 4172 
L 2094 3756 
L 1050 3756 
z
" transform="scale(0.015625)"/>
     </defs>
     <use xlink:href="#SegoeUISymbol-5b3"/>
    </g>
   </g>
   <g id="text_51">
    <!-- ♅ -->
    <g style="fill: #8fb8ca" transform="translate(244.226887 383.627227) scale(0.16 -0.16)">
     <defs>
      <path id="SegoeUISymbol-5b4" d="M 188 4481 
L 1172 4481 
L 1172 3119 
L 2063 3119 
L 2063 4481 
L 2478 4481 
L 2478 3119 
L 3372 3119 
L 3372 4481 
L 4356 4481 
L 4356 4038 
L 3850 4038 
L 3850 1728 
L 4356 1728 
L 4356 1284 
L 3372 1284 
L 3372 2700 
L 2478 2700 
L 2478 1603 
Q 2600 1578 2719 1517 
Q 2838 1456 2934 1356 
Q 3031 1256 3090 1114 
Q 3150 972 3150 784 
Q 3150 597 3086 439 
Q 3022 281 2908 165 
Q 2794 50 2633 -14 
Q 2472 -78 2278 -78 
Q 2084 -78 1925 -14 
Q 1766 50 1650 165 
Q 1534 281 1471 439 
Q 1409 597 1409 784 
Q 1409 972 1464 1112 
Q 1519 1253 1611 1351 
Q 1703 1450 1820 1512 
Q 1938 1575 2063 1606 
L 2063 2700 
L 1172 2700 
L 1172 1284 
L 188 1284 
L 188 1728 
L 694 1728 
L 694 4038 
L 188 4038 
L 188 4481 
z
M 2278 1250 
Q 2072 1250 1944 1123 
Q 1816 997 1816 784 
Q 1816 678 1848 590 
Q 1881 503 1940 439 
Q 2000 375 2084 339 
Q 2169 303 2272 303 
Q 2375 303 2461 339 
Q 2547 375 2609 439 
Q 2672 503 2706 590 
Q 2741 678 2741 784 
Q 2741 891 2706 977 
Q 2672 1063 2611 1123 
Q 2550 1184 2465 1217 
Q 2381 1250 2278 1250 
z
" transform="scale(0.015625)"/>
     </defs>
     <use xlink:href="#SegoeUISymbol-5b4"/>
    </g>
   </g>
   <g id="text_52">
    <!-- ♆ -->
    <g style="fill: #b8a9c9" transform="translate(252.308997 389.226545) scale(0.16 -0.16)">
     <defs>
      <path id="SegoeUISymbol-5b5" d="M 519 3588 
L 131 3200 
L 131 3641 
L 706 4197 
L 719 4197 
L 1297 3641 
L 1297 3200 
L 906 3591 
L 906 3281 
Q 906 2869 998 2514 
Q 1091 2159 1280 1893 
Q 1469 1628 1759 1473 
Q 2050 1319 2444 1306 
L 2444 4047 
L 2059 3663 
L 2059 4106 
L 2634 4659 
L 2647 4659 
L 3225 4109 
L 3225 3663 
L 2834 4053 
L 2834 1306 
Q 3219 1319 3506 1473 
Q 3794 1628 3983 1893 
Q 4172 2159 4267 2514 
Q 4363 2869 4363 3281 
L 4363 3584 
L 3978 3200 
L 3978 3641 
L 4553 4197 
L 4566 4197 
L 5144 3641 
L 5144 3200 
L 4753 3591 
L 4753 3281 
Q 4753 2781 4636 2356 
Q 4519 1931 4281 1617 
Q 4044 1303 3683 1118 
Q 3322 934 2834 913 
L 2834 413 
L 3678 413 
L 3678 -3 
L 2834 -3 
L 2834 -547 
L 2444 -547 
L 2444 -3 
L 1597 -3 
L 1597 413 
L 2444 413 
L 2444 913 
Q 1956 934 1593 1118 
Q 1231 1303 992 1617 
Q 753 1931 636 2356 
Q 519 2781 519 3281 
L 519 3588 
z
" transform="scale(0.015625)"/>
     </defs>
     <use xlink:href="#SegoeUISymbol-5b5"/>
    </g>
   </g>
   <g id="text_53">
    <!-- ♇ -->
    <g style="fill: #7a6b8a" transform="translate(135.907309 362.609024) scale(0.16 -0.16)">
     <defs>
      <path id="SegoeUISymbol-5b6" d="M 1113 1919 
L 1113 475 
L 3250 475 
L 3250 0 
L 588 0 
L 588 4481 
L 1819 4481 
Q 2175 4481 2456 4398 
Q 2738 4316 2931 4158 
Q 3125 4000 3226 3772 
Q 3328 3544 3328 3250 
Q 3328 2913 3197 2663 
Q 3066 2413 2842 2247 
Q 2619 2081 2323 2000 
Q 2028 1919 1703 1919 
L 1113 1919 
z
M 1113 4006 
L 1113 2391 
L 1663 2391 
Q 2209 2391 2493 2609 
Q 2778 2828 2778 3222 
Q 2778 4006 1728 4006 
L 1113 4006 
z
" transform="scale(0.015625)"/>
     </defs>
     <use xlink:href="#SegoeUISymbol-5b6"/>
    </g>
   </g>
   <g id="line2d_20">
    <defs>
     <path id="m6e54208b3f" d="M 0 7.071068 
L 7.071068 0 
L 0 -7.071068 
L -7.071068 0 
z
" style="stroke: #c9a96e; stroke-linejoin: miter"/>
    </defs>
    <g clip-path="url(#p1848dde3d5)">
     <use xlink:href="#m6e54208b3f" x="85.98228" y="252.285703" style="fill: #c9a96e; stroke: #c9a96e; stroke-linejoin: miter"/>
    </g>
   </g>
  </g>
 </g>
 <defs>
  <clipPath id="p1848dde3d5">
   <path d="M 418.253984 262.383027 
C 418.253984 236.901928 413.234763 211.6686 403.483569 188.127134 
C 393.732374 164.585668 379.438842 143.193886 361.420984 125.176028 
C 343.403126 107.158169 322.011344 92.864637 298.469878 83.113443 
C 274.928411 73.362248 249.695084 68.343027 224.213984 68.343027 
C 198.732885 68.343027 173.499557 73.362248 149.958091 83.113443 
C 126.416625 92.864637 105.024843 107.158169 87.006985 125.176028 
C 68.989126 143.193886 54.695594 164.585668 44.9444 188.127134 
C 35.193205 211.6686 30.173984 236.901928 30.173984 262.383027 
C 30.173984 287.864127 35.193205 313.097454 44.9444 336.638921 
C 54.695594 360.180387 68.989126 381.572169 87.006985 399.590027 
C 105.024843 417.607885 126.416625 431.901417 149.958091 441.652612 
C 173.499557 451.403806 198.732885 456.423027 224.213984 456.423027 
C 249.695084 456.423027 274.928411 451.403806 298.469878 441.652612 
C 322.011344 431.901417 343.403126 417.607885 361.420984 399.590027 
C 379.438842 381.572169 393.732374 360.180387 403.483569 336.638921 
C 413.234763 313.097454 418.253984 287.864127 418.253984 262.383027 
M 224.213984 262.383027 
C 224.213984 262.383027 224.213984 262.383027 224.213984 262.383027 
C 224.213984 262.383027 224.213984 262.383027 224.213984 262.383027 
C 224.213984 262.383027 224.213984 262.383027 224.213984 262.383027 
C 224.213984 262.383027 224.213984 262.383027 224.213984 262.383027 
C 224.213984 262.383027 224.213984 262.383027 224.213984 262.383027 
C 224.213984 262.383027 224.213984 262.383027 224.213984 262.383027 
C 224.213984 262.383027 224.213984 262.383027 224.213984 262.383027 
C 224.213984 262.383027 224.213984 262.383027 224.213984 262.383027 
C 224.213984 262.383027 224.213984 262.383027 224.213984 262.383027 
C 224.213984 262.383027 224.213984 262.383027 224.213984 262.383027 
C 224.213984 262.383027 224.213984 262.383027 224.213984 262.383027 
C 224.213984 262.383027 224.213984 262.383027 224.213984 262.383027 
C 224.213984 262.383027 224.213984 262.383027 224.213984 262.383027 
C 224.213984 262.383027 224.213984 262.383027 224.213984 262.383027 
C 224.213984 262.383027 224.213984 262.383027 224.213984 262.383027 
C 224.213984 262.383027 224.213984 262.383027 224.213984 262.383027 
z
"/>
  </clipPath>
 </defs>
</svg>
